<svg width="19" height="19" viewBox="0 0 19 19" fill="none" xmlns="http://www.w3.org/2000/svg">
<g clip-path="url(#clip0)">
<path d="M17.6445 6.56479C17.5677 5.98722 17.5568 4.99242 18.0933 4.65838C18.1029 4.65226 18.11 4.64341 18.1184 4.63581C18.557 4.49553 18.8605 4.29866 18.6223 4.03374L12.1524 2.08429L1.67611 3.54082C1.67611 3.54082 0.476446 3.71229 0.583614 5.57612C0.641792 6.59054 0.959951 7.08873 1.23819 7.33391L0.37852 7.59299C0.139914 7.85791 0.443388 8.05484 0.882042 8.19489C0.890377 8.20272 0.897408 8.21151 0.907161 8.21763C1.44329 8.55195 1.43297 9.54664 1.35585 10.1243C-0.570176 10.6712 0.121202 10.8494 0.121202 10.8494L0.543696 10.9517C0.246516 11.2202 -0.0486228 11.7295 0.00666255 12.6953C0.113888 14.5588 1.09927 14.6874 1.09927 14.6874L7.95488 16.9157L18.3026 14.4093C18.3026 14.4093 18.9942 14.2308 17.0677 13.6839C16.9902 13.1071 16.9794 12.1125 17.5168 11.7773C17.5267 11.7714 17.5339 11.7624 17.5419 11.7549C17.9805 11.6146 18.2838 11.4179 18.0454 11.153L17.5957 11.0172C17.8956 10.8363 18.3462 10.3636 18.4168 9.1356C18.4655 8.29095 18.2451 7.79627 17.9901 7.50504L18.8791 7.28991C18.8791 7.29025 19.5707 7.11175 17.6445 6.56479ZM8.98925 6.54092L10.7293 6.1833L16.6099 4.97484L17.486 4.79464C17.2061 5.30701 17.2178 6.0082 17.2641 6.45887C17.2743 6.56082 17.286 6.65393 17.2973 6.7247L16.3383 6.96313L8.9161 8.80955L8.98925 6.54092ZM1.51451 8.35446L2.39051 8.53466L8.03795 9.6956L8.53132 9.79664L10.0109 10.1007L10.0838 12.3694L2.45538 10.4715L1.70333 10.2846C1.71438 10.2137 1.72606 10.1208 1.73667 10.0185C1.78271 9.56818 1.79467 8.86682 1.51451 8.35446ZM1.17417 5.48642C1.16357 4.99066 1.25191 4.63213 1.43047 4.44988C1.5441 4.33353 1.67821 4.30932 1.77018 4.30932C1.81877 4.30932 1.85376 4.31606 1.85614 4.31606L6.37009 5.78768L8.62216 6.52193L8.54827 8.80644L2.23032 7.03515L1.89691 6.94176C1.88466 6.9383 1.86805 6.93592 1.85523 6.93535C1.82921 6.93348 1.20457 6.87598 1.17417 5.48642ZM7.97121 15.926L1.32001 14.0612C1.30771 14.0576 1.29127 14.0553 1.27845 14.0546C1.25197 14.0529 0.627049 13.9954 0.596826 12.6062C0.586053 12.1098 0.674849 11.7516 0.853067 11.5692C0.966983 11.4529 1.10114 11.4287 1.19294 11.4287C1.24165 11.4287 1.27652 11.4352 1.27908 11.4352C1.27908 11.4352 1.27936 11.4352 1.27908 11.4352L8.04464 13.6414L7.97121 15.926ZM16.6867 13.5781C16.6972 13.6803 16.7089 13.7733 16.7202 13.8442L8.33887 15.9292L8.41213 13.6605L10.204 13.2921L10.4686 13.3561L11.4605 13.0338L16.0325 12.0942L16.9089 11.9139C16.6287 12.4262 16.6403 13.1277 16.6867 13.5781ZM17.1484 10.4948C17.1331 10.4952 17.1179 10.4972 17.1035 10.5017L16.4714 10.6787L10.4525 12.3664L10.3789 10.0819L12.3537 9.43782L17.1352 7.87843C17.1359 7.87815 17.3868 7.82241 17.5709 8.0097C17.7492 8.19194 17.8377 8.55048 17.8272 9.04623C17.7961 10.4353 17.1711 10.4931 17.1484 10.4948Z" fill="white"/>
</g>
<defs>
<clipPath id="clip0">
<rect width="19" height="19" fill="white"/>
</clipPath>
</defs>
</svg>
