<svg width="19" height="19" viewBox="0 0 19 19" fill="none" xmlns="http://www.w3.org/2000/svg">
<g clip-path="url(#clip0)">
<path d="M17.6446 6.56479C17.5677 5.98722 17.5569 4.99242 18.0934 4.65838C18.1029 4.65226 18.1101 4.64341 18.1185 4.63581C18.5571 4.49553 18.8606 4.29866 18.6223 4.03374L12.1524 2.08429L1.67617 3.54082C1.67617 3.54082 0.476507 3.71229 0.583675 5.57612C0.641853 6.59054 0.960012 7.08873 1.23825 7.33391L0.378581 7.59299C0.139975 7.85791 0.443449 8.05484 0.882103 8.19489C0.890438 8.20272 0.897469 8.21151 0.907222 8.21763C1.44335 8.55195 1.43303 9.54664 1.35591 10.1243C-0.570115 10.6712 0.121263 10.8494 0.121263 10.8494L0.543757 10.9517C0.246577 11.2202 -0.0485617 11.7295 0.00672358 12.6953C0.113949 14.5588 1.09933 14.6874 1.09933 14.6874L7.95494 16.9157L18.3026 14.4093C18.3026 14.4093 18.9943 14.2308 17.0677 13.6839C16.9903 13.1071 16.9795 12.1125 17.5169 11.7773C17.5267 11.7714 17.5339 11.7624 17.5419 11.7549C17.9806 11.6146 18.2838 11.4179 18.0455 11.153L17.5957 11.0172C17.8957 10.8363 18.3463 10.3636 18.4168 9.1356C18.4656 8.29095 18.2452 7.79627 17.9902 7.50504L18.8791 7.28991C18.8792 7.29025 19.5708 7.11175 17.6446 6.56479ZM8.98931 6.54092L10.7294 6.1833L16.61 4.97484L17.4861 4.79464C17.2061 5.30701 17.2179 6.0082 17.2642 6.45887C17.2743 6.56082 17.286 6.65393 17.2974 6.7247L16.3384 6.96313L8.91616 8.80955L8.98931 6.54092ZM1.51457 8.35446L2.39057 8.53466L8.03801 9.6956L8.53138 9.79664L10.0109 10.1007L10.0839 12.3694L2.45544 10.4715L1.70339 10.2846C1.71444 10.2137 1.72613 10.1208 1.73673 10.0185C1.78277 9.56818 1.79474 8.86682 1.51457 8.35446ZM1.17424 5.48642C1.16363 4.99066 1.25198 4.63213 1.43053 4.44988C1.54417 4.33353 1.67827 4.30932 1.77024 4.30932C1.81883 4.30932 1.85382 4.31606 1.8562 4.31606L6.37015 5.78768L8.62222 6.52193L8.54833 8.80644L2.23038 7.03515L1.89697 6.94176C1.88472 6.9383 1.86811 6.93592 1.85529 6.93535C1.82927 6.93348 1.20463 6.87598 1.17424 5.48642ZM7.97127 15.926L1.32008 14.0612C1.30777 14.0576 1.29133 14.0553 1.27851 14.0546C1.25203 14.0529 0.62711 13.9954 0.596887 12.6062C0.586114 12.1098 0.67491 11.7516 0.853128 11.5692C0.967044 11.4529 1.1012 11.4287 1.193 11.4287C1.24171 11.4287 1.27658 11.4352 1.27914 11.4352C1.27914 11.4352 1.27942 11.4352 1.27914 11.4352L8.0447 13.6414L7.97127 15.926ZM16.6868 13.5781C16.6973 13.6803 16.709 13.7733 16.7203 13.8442L8.33893 15.9292L8.41219 13.6605L10.2041 13.2921L10.4687 13.3561L11.4605 13.0338L16.0325 12.0942L16.909 11.9139C16.6288 12.4262 16.6404 13.1277 16.6868 13.5781ZM17.1485 10.4948C17.1332 10.4952 17.118 10.4972 17.1036 10.5017L16.4715 10.6787L10.4526 12.3664L10.379 10.0819L12.3537 9.43782L17.1353 7.87843C17.1359 7.87815 17.3868 7.82241 17.571 8.0097C17.7493 8.19194 17.8377 8.55048 17.8273 9.04623C17.7961 10.4353 17.1712 10.4931 17.1485 10.4948Z" fill="#69898C"/>
</g>
<defs>
<clipPath id="clip0">
<rect width="19" height="19" fill="white"/>
</clipPath>
</defs>
</svg>
