<svg width="21" height="20" viewBox="0 0 21 20" fill="none" xmlns="http://www.w3.org/2000/svg">
<path d="M8.14061 10C8.14061 8.5273 9.3342 7.33312 10.807 7.33312C12.2797 7.33312 13.4739 8.5273 13.4739 10C13.4739 11.4727 12.2797 12.6669 10.807 12.6669C9.3342 12.6669 8.14061 11.4727 8.14061 10ZM6.69889 10C6.69889 12.2688 8.53807 14.1079 10.807 14.1079C13.0759 14.1079 14.915 12.2688 14.915 10C14.915 7.7312 13.0759 5.8921 10.807 5.8921C8.53807 5.8921 6.69889 7.7312 6.69889 10ZM14.1176 5.72922C14.1175 5.91909 14.1738 6.10471 14.2792 6.26263C14.3846 6.42054 14.5345 6.54365 14.7099 6.61638C14.8853 6.68911 15.0783 6.7082 15.2646 6.67123C15.4508 6.63426 15.6219 6.5429 15.7562 6.40869C15.8906 6.27449 15.9821 6.10347 16.0192 5.91726C16.0563 5.73106 16.0374 5.53802 15.9648 5.36258C15.8922 5.18713 15.7692 5.03715 15.6113 4.9316C15.4535 4.82605 15.2679 4.76968 15.078 4.7696H15.0777C14.8231 4.76972 14.5791 4.87085 14.3991 5.05077C14.2191 5.2307 14.1178 5.47471 14.1176 5.72922ZM7.57483 16.5118C6.79483 16.4763 6.37088 16.3464 6.08914 16.2366C5.71562 16.0912 5.44911 15.918 5.16891 15.6382C4.88871 15.3584 4.71526 15.0922 4.57049 14.7187C4.46066 14.4371 4.33073 14.013 4.29528 13.233C4.25649 12.3898 4.24875 12.1364 4.24875 10.0001C4.24875 7.86368 4.25713 7.61107 4.29528 6.7671C4.3308 5.98714 4.46168 5.5639 4.57049 5.28147C4.7159 4.90797 4.88909 4.64147 5.16891 4.36128C5.44873 4.08109 5.71498 3.90765 6.08914 3.76288C6.37075 3.65306 6.79483 3.52314 7.57483 3.48768C8.41813 3.4489 8.67145 3.44115 10.807 3.44115C12.9425 3.44115 13.196 3.44954 14.0401 3.48768C14.8201 3.5232 15.2433 3.65408 15.5257 3.76288C15.8993 3.90765 16.1658 4.08147 16.446 4.36128C16.7262 4.64109 16.899 4.90797 17.0444 5.28147C17.1542 5.56307 17.2841 5.98714 17.3196 6.7671C17.3584 7.61107 17.3661 7.86368 17.3661 10.0001C17.3661 12.1364 17.3584 12.3891 17.3196 13.233C17.2841 14.013 17.1535 14.4369 17.0444 14.7187C16.899 15.0922 16.7258 15.3587 16.446 15.6382C16.1662 15.9178 15.8993 16.0912 15.5257 16.2366C15.2441 16.3464 14.8201 16.4764 14.0401 16.5118C13.1968 16.5506 12.9434 16.5583 10.807 16.5583C8.67049 16.5583 8.41787 16.5506 7.57483 16.5118ZM7.50859 2.04845C6.65691 2.08723 6.07493 2.22227 5.56669 2.42003C5.04033 2.62426 4.59474 2.89824 4.14948 3.34278C3.70421 3.78733 3.43092 4.2336 3.22669 4.75994C3.02892 5.26848 2.89388 5.85011 2.85509 6.70176C2.81566 7.55475 2.80664 7.82746 2.80664 10C2.80664 12.1725 2.81566 12.4452 2.85509 13.2982C2.89388 14.15 3.02892 14.7315 3.22669 15.2401C3.43092 15.7661 3.70428 16.2129 4.14948 16.6572C4.59468 17.1016 5.04033 17.3752 5.56669 17.58C6.07589 17.7777 6.65691 17.9128 7.50859 17.9516C8.36206 17.9903 8.63433 18 10.807 18C12.9796 18 13.2523 17.991 14.1053 17.9516C14.9571 17.9128 15.5387 17.7777 16.0472 17.58C16.5733 17.3752 17.0192 17.1018 17.4644 16.6572C17.9097 16.2127 18.1824 15.7661 18.3872 15.2401C18.585 14.7315 18.7207 14.1499 18.7588 13.2982C18.7976 12.4446 18.8066 12.1725 18.8066 10C18.8066 7.82746 18.7976 7.55475 18.7588 6.70176C18.72 5.85005 18.585 5.26816 18.3872 4.75994C18.1824 4.23392 17.909 3.78803 17.4644 3.34278C17.0199 2.89754 16.5733 2.62426 16.0479 2.42003C15.5387 2.22227 14.957 2.08659 14.106 2.04845C13.2529 2.00966 12.9802 2 10.8076 2C8.63497 2 8.36206 2.00902 7.50859 2.04845Z" fill="#69898C"/>
</svg>
