<svg width="16" height="16" viewBox="0 0 16 16" fill="none" xmlns="http://www.w3.org/2000/svg">
<path d="M12.5515 3.46808C11.3656 2.25727 9.72641 1.59998 8.05229 1.59998C4.4948 1.59998 1.63485 4.47133 1.66973 7.96538C1.66973 9.07241 1.98363 10.1448 2.50679 11.1135L1.59998 14.4L4.98308 13.5351C5.92477 14.054 6.97109 14.2962 8.01741 14.2962C11.54 14.2962 14.4 11.4248 14.4 7.93079C14.4 6.23565 13.7373 4.6443 12.5515 3.46808ZM8.05229 13.2238C7.1106 13.2238 6.16891 12.9816 5.36673 12.4973L5.15747 12.3935L3.13458 12.9124L3.65774 10.9405L3.51823 10.7329C1.98363 8.27673 2.71605 5.02484 5.22722 3.50268C7.73839 1.98052 10.982 2.707 12.5166 5.19781C14.0512 7.68862 13.3188 10.9059 10.8076 12.4281C10.0054 12.947 9.02886 13.2238 8.05229 13.2238ZM11.1215 9.38376L10.7378 9.21079C10.7378 9.21079 10.1798 8.96862 9.83104 8.79565C9.79616 8.79565 9.76128 8.76106 9.72641 8.76106C9.62177 8.76106 9.55202 8.79565 9.48226 8.83025C9.48226 8.83025 9.44739 8.86484 8.9591 9.41835C8.92423 9.48754 8.85447 9.52214 8.78472 9.52214H8.74984C8.71496 9.52214 8.64521 9.48754 8.61033 9.45295L8.43594 9.38376C8.05229 9.21079 7.70352 9.00322 7.4245 8.72646C7.35474 8.65727 7.25011 8.58808 7.18036 8.51889C6.93621 8.27673 6.69207 7.99998 6.51769 7.68862L6.48281 7.61943C6.44793 7.58484 6.44793 7.55025 6.41305 7.48106C6.41305 7.41187 6.41305 7.34268 6.44793 7.30808C6.44793 7.30808 6.58744 7.13511 6.69207 7.03133C6.76183 6.96214 6.79671 6.85835 6.86646 6.78916C6.93621 6.68538 6.97109 6.547 6.93621 6.44322C6.90134 6.27025 6.48281 5.33619 6.37818 5.12862C6.30842 5.02484 6.23867 4.99025 6.13404 4.95565H6.0294C5.95965 4.95565 5.85502 4.95565 5.75038 4.95565C5.68063 4.95565 5.61087 4.99025 5.54112 4.99025L5.50624 5.02484C5.43649 5.05943 5.36673 5.12862 5.29698 5.16322C5.22722 5.23241 5.19235 5.3016 5.12259 5.37079C4.87845 5.68214 4.73894 6.06268 4.73894 6.44322C4.73894 6.71998 4.80869 6.99673 4.91333 7.23889L4.9482 7.34268C5.2621 7.99998 5.68063 8.58808 6.23867 9.107L6.37818 9.24538C6.48281 9.34916 6.58744 9.41835 6.6572 9.52214C7.38962 10.1448 8.22668 10.5946 9.16837 10.8367C9.273 10.8713 9.41251 10.8713 9.51714 10.9059C9.62177 10.9059 9.76128 10.9059 9.86592 10.9059C10.0403 10.9059 10.2496 10.8367 10.3891 10.7675C10.4937 10.6984 10.5635 10.6984 10.6332 10.6292L10.703 10.56C10.7727 10.4908 10.8425 10.4562 10.9122 10.387C10.982 10.3178 11.0517 10.2486 11.0866 10.1794C11.1564 10.0411 11.1913 9.86808 11.2261 9.69511C11.2261 9.62592 11.2261 9.52214 11.2261 9.45295C11.2261 9.45295 11.1913 9.41835 11.1215 9.38376Z" fill="#828282"/>
</svg>
