<svg width="16" height="16" viewBox="0 0 16 16" fill="none" xmlns="http://www.w3.org/2000/svg">
<path d="M5.98223 9.14833L5.82534 9.28356L5.81004 9.49012L5.61154 12.1704L5.57177 12.7074H6.11017C6.32813 12.7074 6.51463 12.6606 6.68069 12.5687C6.82313 12.4899 6.93183 12.3859 6.99894 12.3218C7.00146 12.3194 7.00393 12.317 7.00633 12.3147L8.03778 11.3684L10.4677 13.0767L10.4926 13.0942L10.5194 13.1085C10.8307 13.2751 11.2193 13.3823 11.5927 13.2199C11.9706 13.0556 12.1561 12.6931 12.2408 12.3363L12.2408 12.3363L12.2424 12.3293L14.0207 4.33022L14.0209 4.32996L14.0538 4.18287C14.1547 3.73162 14.1003 3.26642 13.7684 2.95984C13.4383 2.65487 12.991 2.6527 12.6341 2.78024L12.6341 2.78022L12.6298 2.78178L1.98459 6.69424L1.98459 6.69423L1.98249 6.69502C1.76895 6.77459 1.57669 6.87435 1.42622 7.00089C1.27984 7.12399 1.12664 7.31354 1.10297 7.5711C1.07759 7.84741 1.21223 8.06563 1.36699 8.20452C1.51473 8.33711 1.70279 8.42243 1.89073 8.47838C1.89081 8.47841 1.89089 8.47843 1.89097 8.47846L4.61209 9.29096L4.82348 9.35408L5.0126 9.24048L7.85856 7.53098L5.98223 9.14833Z" stroke="#828282"/>
</svg>
