<svg width="16" height="16" viewBox="0 0 16 16" fill="none" xmlns="http://www.w3.org/2000/svg">
<g clip-path="url(#clip0)">
<path d="M14.3089 11.7618L14.3085 11.7614C14.0451 11.4688 13.6168 11.1298 13.211 10.8383C12.7975 10.5413 12.3687 10.2663 12.0789 10.1021L12.0787 10.1019L12.0646 10.094C11.9002 10.0008 11.7492 9.91532 11.617 9.85366C11.4783 9.789 11.3182 9.72973 11.1364 9.72068C10.7693 9.70242 10.4699 9.90306 10.2073 10.079L10.1998 10.0841L10.1997 10.0841C10.1326 10.1291 10.0761 10.1681 10.0268 10.202C9.90306 10.2873 9.8249 10.3412 9.73759 10.3813C9.65713 10.4184 9.60023 10.4276 9.50832 10.4032C9.37169 10.3671 9.08324 10.231 8.71003 9.97255C8.3484 9.7221 7.94149 9.38039 7.56663 8.96847C7.19169 8.55646 6.88272 8.11098 6.66038 7.71864C6.43009 7.31227 6.31768 7.00695 6.29545 6.87161C6.28057 6.781 6.29454 6.72754 6.33966 6.6512C6.36807 6.60314 6.4086 6.54802 6.46934 6.47358C6.4977 6.43882 6.5277 6.40315 6.56166 6.36277L6.5679 6.35535C6.60357 6.31295 6.64287 6.26615 6.68312 6.21659L6.68314 6.21657C6.88185 5.9719 7.09441 5.70011 7.11162 5.3343C7.11983 5.15973 7.08275 4.99822 7.03656 4.85228C6.9911 4.70866 6.92459 4.54436 6.85126 4.36425L6.85109 4.36383C6.72096 4.04502 6.48396 3.5855 6.22573 3.14784C5.97036 2.71505 5.66944 2.26115 5.4042 1.97351L5.03663 2.31246L5.40488 1.97425C5.28175 1.84018 5.1738 1.72817 5.07654 1.64382C4.98241 1.56219 4.85825 1.47017 4.69954 1.42617C4.52073 1.3766 4.36868 1.40644 4.26361 1.43892C4.21634 1.45353 4.17086 1.47122 4.13882 1.48373C4.1339 1.48565 4.12912 1.48752 4.12443 1.48936C4.09455 1.50104 4.06873 1.51114 4.03922 1.52175L4.03921 1.52174L4.03713 1.5225C3.73439 1.63288 3.4424 1.77074 3.1648 1.93438L3.1648 1.93437L3.1626 1.93568C2.62744 2.25484 2.26591 2.56387 2.00274 3.06162C1.68746 3.65795 1.63584 4.7688 2.53407 6.6069C3.42604 8.43217 4.08004 9.39188 5.43218 10.8783C6.78848 12.3692 7.85646 13.1933 9.40515 14.1638L9.4054 14.164C10.3737 14.7699 11.0928 15.0549 11.6532 15.1526C12.2367 15.2544 12.6216 15.1484 12.8927 15.0378C13.4138 14.8253 13.7579 14.499 14.1294 13.9957L14.1306 13.994C14.321 13.734 14.487 13.4569 14.6266 13.1664L14.6272 13.1649C14.6406 13.1368 14.6532 13.1123 14.6677 13.0839C14.67 13.0793 14.6724 13.0746 14.6748 13.0698C14.6904 13.0392 14.7125 12.9957 14.7318 12.9501C14.7745 12.8485 14.8192 12.6998 14.787 12.5166C14.7584 12.3543 14.6786 12.2219 14.6064 12.1205C14.5318 12.0156 14.4306 11.8973 14.3089 11.7618Z" stroke="#828282" stroke-miterlimit="10"/>
</g>
<defs>
<clipPath id="clip0">
<rect width="15.2752" height="15.2752" fill="white" transform="translate(0.74292) rotate(2.78761)"/>
</clipPath>
</defs>
</svg>
