<svg width="16" height="16" viewBox="0 0 16 16" fill="none" xmlns="http://www.w3.org/2000/svg">
<path d="M5.86715 7.99998C5.86715 6.82181 6.82202 5.86647 8.00023 5.86647C9.17844 5.86647 10.1338 6.82181 10.1338 7.99998C10.1338 9.17814 9.17844 10.1335 8.00023 10.1335C6.82202 10.1335 5.86715 9.17814 5.86715 7.99998ZM4.71378 7.99998C4.71378 9.81502 6.18512 11.2863 8.00023 11.2863C9.81534 11.2863 11.2867 9.81502 11.2867 7.99998C11.2867 6.18494 9.81534 4.71365 8.00023 4.71365C6.18512 4.71365 4.71378 6.18494 4.71378 7.99998ZM10.6488 4.58335C10.6487 4.73524 10.6937 4.88375 10.778 5.01008C10.8624 5.13641 10.9823 5.23489 11.1226 5.29308C11.2629 5.35126 11.4173 5.36653 11.5663 5.33696C11.7153 5.30738 11.8522 5.23429 11.9597 5.12693C12.0671 5.01957 12.1403 4.88275 12.17 4.73379C12.1997 4.58482 12.1845 4.4304 12.1265 4.29004C12.0684 4.14968 11.97 4.0297 11.8437 3.94526C11.7175 3.86082 11.569 3.81572 11.4171 3.81566H11.4168C11.2132 3.81575 11.0179 3.89665 10.8739 4.04059C10.7299 4.18453 10.6489 4.37974 10.6488 4.58335V4.58335ZM5.41453 13.2094C4.79053 13.181 4.45137 13.0771 4.22597 12.9893C3.92716 12.8729 3.71395 12.7344 3.48979 12.5105C3.26563 12.2867 3.12687 12.0737 3.01105 11.7749C2.92319 11.5496 2.81925 11.2104 2.79088 10.5864C2.75986 9.91178 2.75366 9.70913 2.75366 8.00003C2.75366 6.29092 2.76037 6.08883 2.79088 5.41366C2.8193 4.78968 2.92401 4.4511 3.01105 4.22515C3.12738 3.92635 3.26594 3.71315 3.48979 3.489C3.71365 3.26485 3.92665 3.12609 4.22597 3.01028C4.45126 2.92242 4.79053 2.81848 5.41453 2.79012C6.08917 2.75909 6.29182 2.7529 8.00023 2.7529C9.70864 2.7529 9.9115 2.7596 10.5867 2.79012C11.2107 2.81854 11.5493 2.92324 11.7753 3.01028C12.0741 3.12609 12.2873 3.26515 12.5114 3.489C12.7356 3.71285 12.8738 3.92635 12.9902 4.22515C13.078 4.45043 13.182 4.78968 13.2103 5.41366C13.2414 6.08883 13.2476 6.29092 13.2476 8.00003C13.2476 9.70913 13.2414 9.91122 13.2103 10.5864C13.1819 11.2104 13.0775 11.5495 12.9902 11.7749C12.8738 12.0737 12.7353 12.2869 12.5114 12.5105C12.2876 12.7342 12.0741 12.8729 11.7753 12.9893C11.55 13.0771 11.2107 13.1811 10.5867 13.2094C9.91206 13.2404 9.70941 13.2466 8.00023 13.2466C6.29106 13.2466 6.08896 13.2404 5.41453 13.2094V13.2094ZM5.36153 1.63873C4.68019 1.66976 4.21461 1.77779 3.80801 1.936C3.38693 2.09938 3.03046 2.31857 2.67425 2.6742C2.31803 3.02984 2.0994 3.38686 1.93601 3.80792C1.7778 4.21476 1.66976 4.68007 1.63874 5.36138C1.6072 6.04378 1.59998 6.26194 1.59998 7.99998C1.59998 9.73801 1.6072 9.95617 1.63874 10.6386C1.66976 11.3199 1.7778 11.7852 1.93601 12.192C2.0994 12.6128 2.31808 12.9703 2.67425 13.3257C3.03041 13.6812 3.38693 13.9001 3.80801 14.064C4.21538 14.2222 4.68019 14.3302 5.36153 14.3612C6.04431 14.3922 6.26213 14.4 8.00023 14.4C9.73834 14.4 9.95651 14.3928 10.6389 14.3612C11.3203 14.3302 11.7856 14.2222 12.1925 14.064C12.6133 13.9001 12.97 13.6814 13.3262 13.3257C13.6824 12.9701 13.9006 12.6128 14.0644 12.192C14.2227 11.7852 14.3312 11.3199 14.3617 10.6386C14.3928 9.95566 14.4 9.73801 14.4 7.99998C14.4 6.26194 14.3928 6.04378 14.3617 5.36138C14.3307 4.68001 14.2227 4.2145 14.0644 3.80792C13.9006 3.38711 13.6819 3.0304 13.3262 2.6742C12.9706 2.318 12.6133 2.09938 12.193 1.936C11.7856 1.77779 11.3203 1.66925 10.6394 1.63873C9.95702 1.60771 9.73885 1.59998 8.00074 1.59998C6.26264 1.59998 6.04431 1.60719 5.36153 1.63873Z" fill="#828282"/>
</svg>
