<svg width="17" height="17" viewBox="0 0 17 17" fill="none" xmlns="http://www.w3.org/2000/svg">
<path d="M14.5106 12.4618C14.0098 11.9055 12.772 11.069 12.1683 10.7268C11.3822 10.2817 11.3175 10.2453 10.6612 10.685C10.2234 10.9785 9.92881 11.2454 9.43947 11.1159C8.95014 10.9863 7.90458 10.3394 7.00939 9.35571C6.1142 8.37202 5.53892 7.23571 5.45712 6.73774C5.37532 6.23978 5.67405 5.97608 6.00575 5.56773C6.47324 4.99213 6.44492 4.89102 6.10941 4.06689C5.84775 3.42587 5.11235 2.12352 4.60525 1.5736C4.0629 0.98307 4.05806 1.08256 3.6835 1.21724C3.3785 1.32844 3.08432 1.46734 2.80465 1.63219C2.25686 1.95889 1.94811 2.23739 1.72073 2.66744C1.49336 3.0975 1.35059 4.12472 2.32008 6.10863C3.28956 8.09254 3.98765 9.11683 5.45709 10.7322C6.92654 12.3475 8.07382 13.2334 9.76254 14.2916C11.8517 15.5991 12.6869 15.4047 13.1383 15.2206C13.5897 15.0365 13.8981 14.7589 14.2771 14.2455C14.4688 13.9837 14.6359 13.7047 14.7764 13.4122C14.9471 13.0538 15.0466 13.0587 14.5106 12.4618Z" stroke="#69898C" stroke-width="1.3" stroke-miterlimit="10"/>
</svg>
