<svg width="18" height="18" viewBox="0 0 18 18" fill="none" xmlns="http://www.w3.org/2000/svg">
<g clip-path="url(#clip0)">
<path d="M16.0314 12.9941L16.0308 12.9934C15.7266 12.6555 15.2391 12.2707 14.7864 11.9455C14.323 11.6127 13.8414 11.3037 13.5136 11.1179L13.5133 11.1177L13.4946 11.1072C13.3142 11.005 13.1417 10.9073 12.9893 10.8362C12.8278 10.761 12.6301 10.6864 12.4009 10.675C11.9443 10.6522 11.5755 10.8996 11.2927 11.0893C11.2856 11.0941 11.2785 11.0988 11.2715 11.1035L11.2714 11.1036C11.2149 11.1415 11.1609 11.1787 11.1127 11.212L11.1055 11.217C11.0539 11.2526 11.0096 11.2831 10.9673 11.3112C10.8814 11.3682 10.8232 11.402 10.777 11.4232C10.7347 11.4427 10.7115 11.4473 10.6985 11.4487C10.687 11.45 10.6637 11.4511 10.6186 11.4392C10.4904 11.4053 10.1856 11.2649 9.77518 10.9806C9.38096 10.7076 8.93645 10.3344 8.5271 9.88457C8.11764 9.43462 7.77991 8.94768 7.53724 8.51946C7.28344 8.0716 7.16844 7.74953 7.14786 7.62428C7.14059 7.58 7.14406 7.55868 7.14613 7.54904C7.14858 7.53762 7.15512 7.51568 7.17899 7.47529C7.2051 7.43111 7.24486 7.37634 7.31096 7.29532C7.34183 7.25749 7.37457 7.21856 7.41263 7.17332L7.41929 7.1654C7.45897 7.11822 7.50342 7.06529 7.54908 7.00907L7.54911 7.00904C7.76701 6.74075 8.03627 6.40388 8.05793 5.94339C8.06821 5.72482 8.02156 5.52655 7.96786 5.35689C7.91518 5.19048 7.83876 5.00195 7.75774 4.80295L7.7575 4.80235C7.60906 4.43871 7.34157 3.9207 7.05225 3.43036C6.76725 2.94735 6.42649 2.43191 6.12081 2.10011C5.98341 1.95049 5.85858 1.82063 5.74372 1.72102C5.63324 1.62521 5.47571 1.50636 5.26846 1.44891C5.03306 1.38365 4.83377 1.42372 4.70256 1.46428C4.64433 1.48228 4.58919 1.5038 4.55389 1.51757C4.54827 1.51976 4.54286 1.52188 4.53762 1.52393C4.50432 1.53695 4.47751 1.54743 4.44665 1.55853L4.44665 1.55852L4.44373 1.55958C4.09858 1.68542 3.76567 1.84261 3.44918 2.02917L3.44918 2.02916L3.4461 2.03099C2.83818 2.39355 2.41168 2.75434 2.1019 3.34026C1.71915 4.06419 1.68372 5.35439 2.69116 7.41597C3.68982 9.45958 4.42535 10.539 5.93929 12.2032C7.45906 13.8738 8.65829 14.7991 10.3908 15.8848L10.3912 15.885C11.4773 16.5648 12.2955 16.8918 12.9443 17.005C13.6254 17.1239 14.0812 16.9998 14.4027 16.8687C15.0157 16.6187 15.4178 16.2335 15.8403 15.6613L15.8419 15.659C16.059 15.3624 16.2483 15.0465 16.4074 14.7152L16.4084 14.7132C16.4224 14.6838 16.4354 14.6584 16.4516 14.6267C16.4542 14.6216 16.4569 14.6163 16.4596 14.6109C16.4768 14.5771 16.5037 14.5244 16.5274 14.4681C16.5809 14.3412 16.6404 14.1463 16.5979 13.9051C16.5606 13.6932 16.4573 13.5249 16.3726 13.4059C16.2845 13.282 16.1672 13.1453 16.0314 12.9941ZM15.8286 14.3074C15.9612 14.0478 15.9887 13.9941 15.5106 13.4618L15.2771 15.2455C15.4688 14.9837 15.6359 14.7047 15.7764 14.4122C15.7949 14.3734 15.8125 14.3389 15.8286 14.3074Z" stroke="#69898C" stroke-width="1.4" stroke-miterlimit="10"/>
</g>
<defs>
<clipPath id="clip0">
<rect width="17" height="17" fill="white" transform="translate(0.826782) rotate(2.78761)"/>
</clipPath>
</defs>
</svg>
