<svg width="16" height="16" viewBox="0 0 16 16" fill="none" xmlns="http://www.w3.org/2000/svg">
<path fill-rule="evenodd" clip-rule="evenodd" d="M3.46665 0.933354C3.59255 0.765483 3.79014 0.666687 3.99998 0.666687H12C12.2098 0.666687 12.4074 0.765483 12.5333 0.933354L14.5333 3.60002C14.6199 3.71542 14.6666 3.85577 14.6666 4.00002V13.3334C14.6666 13.8638 14.4559 14.3725 14.0809 14.7476C13.7058 15.1226 13.1971 15.3334 12.6666 15.3334H3.33331C2.80288 15.3334 2.29417 15.1226 1.9191 14.7476C1.54403 14.3725 1.33331 13.8638 1.33331 13.3334V4.00002C1.33331 3.85577 1.3801 3.71542 1.46665 3.60002L3.46665 0.933354ZM4.33331 2.00002L2.66665 4.22224V13.3334C2.66665 13.5102 2.73688 13.6797 2.86191 13.8048C2.98693 13.9298 3.1565 14 3.33331 14H12.6666C12.8435 14 13.013 13.9298 13.1381 13.8048C13.2631 13.6797 13.3333 13.5102 13.3333 13.3334V4.22224L11.6666 2.00002H4.33331Z" fill="white"/>
<path fill-rule="evenodd" clip-rule="evenodd" d="M1.33331 4.00002C1.33331 3.63183 1.63179 3.33335 1.99998 3.33335H14C14.3682 3.33335 14.6666 3.63183 14.6666 4.00002C14.6666 4.36821 14.3682 4.66669 14 4.66669H1.99998C1.63179 4.66669 1.33331 4.36821 1.33331 4.00002Z" fill="white"/>
<path fill-rule="evenodd" clip-rule="evenodd" d="M5.33331 6.00002C5.7015 6.00002 5.99998 6.2985 5.99998 6.66669C5.99998 7.19712 6.21069 7.70583 6.58577 8.0809C6.96084 8.45597 7.46955 8.66669 7.99998 8.66669C8.53041 8.66669 9.03912 8.45597 9.41419 8.0809C9.78927 7.70583 9.99998 7.19712 9.99998 6.66669C9.99998 6.2985 10.2985 6.00002 10.6666 6.00002C11.0348 6.00002 11.3333 6.2985 11.3333 6.66669C11.3333 7.55074 10.9821 8.39859 10.357 9.02371C9.73188 9.64883 8.88403 10 7.99998 10C7.11593 10 6.26808 9.64883 5.64296 9.02371C5.01784 8.39859 4.66665 7.55074 4.66665 6.66669C4.66665 6.2985 4.96512 6.00002 5.33331 6.00002Z" fill="white"/>
</svg>
