<svg width="21" height="20" viewBox="0 0 21 20" fill="none" xmlns="http://www.w3.org/2000/svg">
<path d="M8.26814 11.4165L8.06418 11.5923L8.04429 11.8608L7.79616 15.2112L7.74447 15.9092H8.44439C8.72063 15.9092 8.95799 15.8499 9.16964 15.7328C9.35062 15.6326 9.48859 15.5006 9.57239 15.4205C9.57556 15.4175 9.57865 15.4145 9.58167 15.4116L10.856 14.2425L13.877 16.3663L13.9093 16.3891L13.9441 16.4077C14.3362 16.6175 14.8306 16.7552 15.3076 16.5478C15.7903 16.3379 16.0253 15.8756 16.132 15.4261L16.132 15.4261L16.1341 15.417L18.3553 5.42556L18.3556 5.42524L18.3983 5.23403C18.5254 4.66536 18.4582 4.07308 18.0342 3.68142C17.6125 3.29186 17.0426 3.29034 16.5909 3.45174L16.5909 3.45172L16.5854 3.45374L3.27879 8.34432L3.27879 8.34431L3.27606 8.34533C3.00754 8.44539 2.76437 8.57132 2.57335 8.73196C2.38765 8.88813 2.19091 9.13057 2.16049 9.46157C2.12784 9.81695 2.30117 10.097 2.49871 10.2742C2.68712 10.4433 2.92598 10.5514 3.16289 10.6219C3.16302 10.6219 3.16314 10.622 3.16326 10.622L6.56463 11.6376L6.83944 11.7197L7.0853 11.572L10.392 9.58578L8.26814 11.4165Z" stroke="#69898C" stroke-width="1.3"/>
</svg>
