<svg width="21" height="20" viewBox="0 0 21 20" fill="none" xmlns="http://www.w3.org/2000/svg">
<path d="M16.496 4.33514C15.0137 2.82162 12.9647 2 10.872 2C6.42517 2 2.85024 5.58919 2.89383 9.95676C2.89383 11.3405 3.2862 12.6811 3.94016 13.8919L2.80664 18L7.03552 16.9189C8.21264 17.5676 9.52054 17.8703 10.8284 17.8703C15.2317 17.8703 18.8066 14.2811 18.8066 9.91351C18.8066 7.79459 17.9783 5.80541 16.496 4.33514ZM10.872 16.5297C9.69492 16.5297 8.51781 16.227 7.51509 15.6216L7.25351 15.4919L4.7249 16.1405L5.37885 13.6757L5.20446 13.4162C3.2862 10.3459 4.20174 6.28108 7.3407 4.37838C10.4797 2.47568 14.5342 3.38378 16.4524 6.4973C18.3707 9.61081 17.4551 13.6324 14.3162 15.5351C13.3135 16.1838 12.0927 16.5297 10.872 16.5297ZM14.7085 11.7297L14.229 11.5135C14.229 11.5135 13.5314 11.2108 13.0955 10.9946C13.0519 10.9946 13.0083 10.9514 12.9647 10.9514C12.8339 10.9514 12.7467 10.9946 12.6595 11.0378C12.6595 11.0378 12.6159 11.0811 12.0056 11.773C11.962 11.8595 11.8748 11.9027 11.7876 11.9027H11.744C11.7004 11.9027 11.6132 11.8595 11.5696 11.8162L11.3516 11.7297C10.872 11.5135 10.4361 11.2541 10.0873 10.9081C10.0001 10.8216 9.86931 10.7351 9.78212 10.6486C9.47694 10.3459 9.17176 10 8.95378 9.61081L8.91018 9.52432C8.86659 9.48108 8.86659 9.43784 8.82299 9.35135C8.82299 9.26486 8.82299 9.17838 8.86659 9.13514C8.86659 9.13514 9.04097 8.91892 9.17176 8.78919C9.25896 8.7027 9.30255 8.57297 9.38975 8.48649C9.47694 8.35676 9.52054 8.18378 9.47694 8.05405C9.43334 7.83784 8.91018 6.67027 8.77939 6.41081C8.6922 6.28108 8.60501 6.23784 8.47422 6.19459H8.34343C8.25623 6.19459 8.12544 6.19459 7.99465 6.19459C7.90746 6.19459 7.82026 6.23784 7.73307 6.23784L7.68947 6.28108C7.60228 6.32432 7.51509 6.41081 7.42789 6.45405C7.3407 6.54054 7.2971 6.62703 7.20991 6.71351C6.90473 7.1027 6.73035 7.57838 6.73035 8.05405C6.73035 8.4 6.81754 8.74595 6.94833 9.04865L6.99193 9.17838C7.3843 10 7.90746 10.7351 8.60501 11.3838L8.77939 11.5568C8.91018 11.6865 9.04097 11.773 9.12817 11.9027C10.0437 12.6811 11.09 13.2432 12.2671 13.5459C12.3979 13.5892 12.5723 13.5892 12.7031 13.6324C12.8339 13.6324 13.0083 13.6324 13.1391 13.6324C13.357 13.6324 13.6186 13.5459 13.793 13.4595C13.9238 13.373 14.011 13.373 14.0982 13.2865L14.1854 13.2C14.2726 13.1135 14.3598 13.0703 14.447 12.9838C14.5342 12.8973 14.6214 12.8108 14.665 12.7243C14.7521 12.5514 14.7957 12.3351 14.8393 12.1189C14.8393 12.0324 14.8393 11.9027 14.8393 11.8162C14.8393 11.8162 14.7957 11.773 14.7085 11.7297Z" fill="#69898C"/>
</svg>
