<svg width="180" height="78" viewBox="0 0 180 78" fill="none" xmlns="http://www.w3.org/2000/svg">
<path d="M61.3599 39.606C61.3976 39.4363 61.3976 39.2604 61.3599 39.0907C57.3721 25.3574 47.5595 11.3777 38.3517 0.579337C36.9627 -1.05611 34.0726 1.11702 35.3496 2.81967C39.6287 8.82377 44.0645 14.671 47.9851 20.9215C51.9057 27.1721 54.7061 33.4002 58.8059 39.2251C53.0707 44.5571 47.8955 50.5836 42.5411 56.2964C37.702 61.4492 32.1012 66.4452 28.4942 72.5613C28.1582 73.1438 28.8527 73.9054 29.4352 73.5022C35.3496 69.5592 40.0095 63.7568 44.8935 58.6488C50.3375 52.936 56.0951 47.4471 61.1807 41.331C61.3717 41.0904 61.4901 40.8003 61.5219 40.4947C61.5536 40.1891 61.4974 39.8807 61.3599 39.606Z" fill="#222221"/>
<path d="M32.9537 39.606C32.9914 39.4363 32.9914 39.2604 32.9537 39.0907C28.9659 25.3574 19.1532 11.3777 9.94543 0.579337C8.55643 -1.05611 5.6664 1.11702 6.94339 2.81967C11.2224 8.82377 15.6583 14.671 19.5789 20.9215C23.4995 27.1721 26.2999 33.4002 30.3997 39.2251C24.6644 44.5571 19.4893 50.5836 14.1349 56.2964C9.29574 61.4492 3.6949 66.4452 0.0879646 72.5613C-0.248086 73.1438 0.446418 73.9054 1.02891 73.5022C6.94339 69.5592 11.6033 63.7568 16.4872 58.6488C21.9312 52.936 27.6889 47.4471 32.7744 41.331C32.9655 41.0904 33.0839 40.8003 33.1156 40.4947C33.1474 40.1891 33.0912 39.8807 32.9537 39.606Z" fill="#222221"/>
<path d="M120.034 43.4828C120.071 43.3131 120.071 43.1373 120.034 42.9676C116.001 29.2344 106.166 15.277 97.0031 4.43383C95.614 2.79839 92.724 4.97151 94.001 6.67416C98.28 12.6783 102.716 18.5255 106.636 24.776C110.557 31.0266 113.357 37.2547 117.457 43.0796C111.722 48.4116 106.547 54.4605 101.192 60.1509C96.3534 65.3037 90.7525 70.2997 87.1456 76.4158C86.8095 76.9983 87.504 77.7599 88.0865 77.3567C94.001 73.4137 98.6609 67.6113 103.545 62.5033C108.989 56.7905 114.746 51.3016 119.832 45.1855C120.022 44.9494 120.142 44.6643 120.178 44.3632C120.213 44.062 120.164 43.7569 120.034 43.4828Z" fill="#222221"/>
<path d="M91.7164 43.4829C91.7541 43.3132 91.7541 43.1373 91.7164 42.9676C87.7286 29.2344 77.9159 15.2547 68.7081 4.45629C67.3191 2.82085 64.4291 4.99397 65.7061 6.69662C69.9851 12.7007 74.421 18.548 78.3416 24.7985C82.2622 31.049 85.0626 37.2772 89.1624 43.1021C83.4271 48.434 78.252 54.4829 72.8976 60.1734C68.0584 65.3262 62.4576 70.3221 58.8507 76.4382C58.5146 77.0207 59.2091 77.7824 59.7916 77.3791C65.7061 73.4361 70.366 67.6337 75.2499 62.5257C80.6939 56.8129 86.4516 51.3241 91.5371 45.208C91.7282 44.9674 91.8466 44.6771 91.8783 44.3715C91.9101 44.0659 91.8539 43.7576 91.7164 43.4829Z" fill="#222221"/>
<path d="M179.225 43.4829C179.263 43.3132 179.263 43.1373 179.225 42.9676C175.237 29.2344 165.425 15.2547 156.217 4.45629C154.828 2.82085 151.938 4.99397 153.215 6.69662C157.494 12.7007 161.93 18.548 165.85 24.7985C169.771 31.049 172.571 37.2772 176.671 43.1021C170.936 48.434 165.761 54.4829 160.406 60.1734C155.567 65.3262 149.966 70.3221 146.359 76.4382C146.023 77.0207 146.718 77.7824 147.3 77.3791C153.215 73.4361 157.875 67.6337 162.759 62.5257C168.203 56.8129 173.96 51.3241 179.046 45.208C179.237 44.9674 179.355 44.6771 179.387 44.3715C179.419 44.0659 179.363 43.7576 179.225 43.4829Z" fill="#222221"/>
<path d="M150.974 43.4829C151.012 43.3132 151.012 43.1373 150.974 42.9676C146.986 29.2344 137.174 15.2547 127.966 4.45629C126.577 2.82085 123.687 4.99397 124.964 6.69662C129.243 12.7007 133.679 18.548 137.599 24.7985C141.52 31.049 144.32 37.2772 148.42 43.1021C142.685 48.434 137.51 54.4829 132.155 60.1734C127.316 65.3262 121.715 70.3221 118.108 76.4382C117.772 77.0207 118.467 77.7824 119.049 77.3791C124.964 73.4361 129.624 67.6337 134.508 62.5257C139.952 56.8129 145.709 51.3241 150.795 45.208C150.986 44.9674 151.104 44.6771 151.136 44.3715C151.168 44.0659 151.112 43.7576 150.974 43.4829Z" fill="#222221"/>
</svg>
