<svg width="98" height="99" viewBox="0 0 98 99" fill="none" xmlns="http://www.w3.org/2000/svg">
<path d="M94.3666 50.428C94.5961 50.5618 94.8497 50.6492 95.1129 50.6851C95.3762 50.7209 95.6439 50.7046 95.9008 50.637C96.1578 50.5694 96.3988 50.4518 96.6103 50.291C96.8218 50.1303 96.9995 49.9294 97.1334 49.6999C97.2673 49.4704 97.3546 49.2168 97.3905 48.9536C97.4263 48.6903 97.41 48.4226 97.3424 48.1657C97.2748 47.9088 97.1572 47.6677 96.9965 47.4562C96.8357 47.2447 96.6348 47.0669 96.4053 46.9331C95.218 46.2162 94.165 45.4768 92.8656 44.6927C93.7841 43.4829 94.6578 42.2284 95.5763 41.0186C96.8085 39.4056 94.0082 37.2325 92.7536 38.7783L89.7291 42.6989C87.2871 41.1978 84.8228 39.7192 82.4256 38.2182L86.9063 31.6092L94.0754 36.9636C95.7332 38.1958 97.7719 35.485 96.3157 34.1184C94.0754 32.0796 91.835 30.0857 89.3931 28.0918L92.6192 23.4544C93.9858 21.4829 90.8045 19.6906 89.4379 21.5949L86.4806 25.6499C82.9259 22.7375 79.2817 19.8997 75.5478 17.1367C76.5733 15.5476 77.9636 14.2265 79.6028 13.2833C80.5214 14.0674 81.4175 14.8515 82.2912 15.7252C83.7474 17.159 86.0101 14.8963 84.5315 13.4849C83.7026 12.6784 82.8065 11.9167 81.8879 11.2446C81.8571 10.7772 81.659 10.3366 81.3298 10.0034C81.0007 9.67014 80.5626 9.46656 80.0957 9.4299C79.8719 9.41539 79.6474 9.41539 79.4236 9.4299C76.5665 7.48531 73.3775 6.08057 70.0142 5.28526C69.8748 5.25041 69.7275 5.26638 69.5987 5.33025C69.47 5.39412 69.3681 5.50171 69.3115 5.63381C69.2549 5.76591 69.2472 5.91386 69.2898 6.05114C69.3323 6.18842 69.4223 6.30607 69.5437 6.383C71.784 7.74961 74.0243 9.16107 76.2647 10.7069C75.0553 12.0458 73.9821 13.5017 73.061 15.0532L72.9266 15.2548C70.4174 13.4401 67.8858 11.6478 65.3318 9.92277L70.283 3.40339C71.56 1.72314 68.67 -0.539597 67.3258 1.16306C65.5559 3.40339 63.8084 5.64372 62.061 7.88406C58.7677 5.64372 55.4744 3.64981 52.1587 1.70072C51.9944 1.39775 51.7518 1.14443 51.4563 0.96711C51.1608 0.78979 50.8231 0.695005 50.4785 0.692606L49.5375 0.132522C48.507 -0.449965 47.2972 1.02861 48.2157 1.83513L48.4621 2.03682C46.2218 4.99406 44.1159 7.99611 41.9652 10.9982L35.8267 6.51749C36.152 6.39044 36.4218 6.15231 36.5884 5.84535C36.919 5.41482 37.0983 4.8872 37.0983 4.34436C37.0983 3.80152 36.919 3.27384 36.5884 2.84331C36.3854 2.51386 36.0825 2.25787 35.7238 2.11278C35.3651 1.96768 34.9694 1.94111 34.5945 2.03682C33.5334 2.23321 32.5787 2.80591 31.9061 3.64979L30.3827 2.55205C29.2849 1.76794 27.9183 3.53779 28.9264 4.43393L30.3378 5.6213C28.0975 8.53373 25.8572 11.5806 23.6168 14.5826C21.3765 13.3056 18.9346 12.0287 16.5822 10.7965C16.3153 10.6794 16.0146 10.6647 15.7374 10.755C15.4603 10.8454 15.2262 11.0345 15.0795 11.2864C14.9328 11.5383 14.8838 11.8353 14.942 12.1209C15.0001 12.4065 15.1613 12.6607 15.3948 12.8352L21.9142 17.0022L19.6739 20.1611C18.016 22.4014 16.2686 24.6418 14.4987 27.0613C12.3928 25.8291 10.2645 24.5746 8.15854 23.3872C6.76954 22.6031 5.73896 24.5522 6.94874 25.4707C8.80822 26.8597 10.6901 28.2487 12.572 29.6377C10.3317 32.7069 8.09134 35.821 5.851 39.0247C4.64122 38.3974 3.45388 37.7477 2.2441 37.1428C2.0056 37.0308 1.7337 37.0122 1.48219 37.0908C1.23067 37.1694 1.01784 37.3395 0.885593 37.5674C0.753344 37.7953 0.711359 38.0645 0.767929 38.3218C0.824498 38.5792 0.975501 38.806 1.19114 38.9575L4.52921 41.1978C3.22704 43.3567 2.07428 45.6023 1.07908 47.9188C0.922255 48.2997 1.45993 48.5013 1.70637 48.2997C3.63089 46.628 5.42122 44.8076 7.0608 42.8556C10.0479 44.8869 13.1097 46.9107 16.2462 48.927C14.4539 51.7946 12.7288 54.707 10.9814 57.5971C7.77771 55.8048 4.57399 54.0573 1.34791 52.3771C1.12918 52.2907 0.886817 52.2853 0.664485 52.3619C0.442154 52.4386 0.254512 52.5922 0.13551 52.7951C0.0165083 52.9979 -0.026043 53.2366 0.0155214 53.4681C0.0570859 53.6996 0.180016 53.9085 0.362155 54.0573C3.27459 56.2976 6.23183 58.3812 9.32349 60.5095C8.22573 62.3466 7.0832 64.1612 6.00784 65.9759C5.94496 66.0878 5.89963 66.2087 5.87343 66.3344L4.95488 65.6846C3.94673 65.0126 2.87135 66.4912 3.67787 67.3201C6.66637 70.3114 9.81491 73.1384 13.1097 75.7886C12.3479 77.2 11.5638 78.589 10.8693 80.0004C10.1748 81.4118 11.8103 82.532 12.7513 81.4566C13.6922 80.3813 14.7676 79.0595 15.7533 77.8497C18.8226 80.2245 22.0038 82.4424 25.2523 84.5707C24.4234 86.2734 23.6169 87.976 23.012 89.701C22.6983 90.4628 23.7961 90.9333 24.3113 90.4404C25.6779 89.1858 26.9774 87.8416 28.2543 86.4526C31.8389 88.6929 35.4907 90.9333 39.1424 93.1736L38.1118 94.7866C37.4173 95.9068 39.12 97.2958 39.9713 96.2204L41.3827 94.4506C43.4662 95.6604 45.5721 96.8702 47.6556 98.0127C49.7392 99.1553 51.3746 96.086 49.4031 95.0107C47.4316 93.9353 45.5049 92.7703 43.5782 91.6725C45.1465 89.701 46.7147 87.7296 48.2605 85.7357C51.2476 87.513 54.2347 89.2605 57.2218 90.978C56.3257 92.5239 55.4296 94.0473 54.5558 95.6156C54.4602 95.7788 54.3977 95.9593 54.3719 96.1468C54.346 96.3342 54.3574 96.525 54.4052 96.708C54.4531 96.8911 54.5365 97.0629 54.6507 97.2138C54.765 97.3646 54.9079 97.4914 55.0711 97.5871C55.2344 97.6827 55.4149 97.7452 55.6024 97.771C55.7898 97.7969 55.9805 97.7855 56.1636 97.7377C56.3467 97.6898 56.5185 97.6064 56.6693 97.4922C56.8202 97.3779 56.947 97.235 57.0426 97.0718C58.006 95.5483 58.9917 94.0697 59.9551 92.5911L63.4276 94.585C63.6233 94.6998 63.8395 94.7748 64.0642 94.8059C64.2889 94.8371 64.5175 94.8237 64.737 94.7665C64.9564 94.7093 65.1625 94.6094 65.3434 94.4725C65.5243 94.3357 65.6764 94.1645 65.7911 93.9689C65.9059 93.7732 65.981 93.5569 66.0121 93.3323C66.0433 93.1076 66.0298 92.879 65.9726 92.6595C65.9154 92.44 65.8155 92.234 65.6787 92.0531C65.5418 91.8722 65.3707 91.7201 65.1751 91.6053L61.9938 89.365C63.6964 86.7214 65.3991 84.0554 67.1466 81.4118C69.6109 83.0473 72.0529 84.7051 74.4949 86.363L71.2464 91.3141C70.5518 92.3222 72.1425 93.5544 72.949 92.6359C74.2036 91.1348 75.391 89.589 76.6008 88.1552L78.8411 89.6115C81.0815 91.1125 83.0753 87.5503 80.9246 86.0717L79.2667 84.9515C81.0814 82.532 82.8289 80.0676 84.5315 77.5808L86.9959 79.1043C89.2362 80.4261 90.9837 77.1552 88.9674 75.7214L86.7271 74.198C88.9674 70.8151 91.0285 67.4769 93.0448 63.87C95.2852 65.3262 97.055 61.9433 95.0611 60.4199C95.442 59.7254 95.8452 59.0533 96.2261 58.3812C97.279 56.4321 94.3442 54.7294 93.2688 56.6561L92.2607 58.3812C90.2892 56.925 88.2953 55.4464 86.3014 53.9005C87.7128 51.9514 89.169 50.0471 90.5805 48.1204C91.7678 48.8149 93.0448 49.6439 94.3666 50.428ZM83.8819 29.3913L78.9755 36.1123C75.3014 33.7375 71.6272 31.3628 67.9978 28.9208C69.4541 26.4789 71.1791 23.6336 72.9042 21.0572C76.5485 23.8502 80.2077 26.6282 83.8819 29.3913ZM56.2809 39.4279L54.8247 41.5115C53.1445 43.9311 51.3746 46.373 49.5599 48.8598C46.5579 46.9107 43.5558 44.9616 40.5986 43.0573C42.8837 39.9059 45.1838 36.7694 47.4988 33.6479L56.2809 39.4279ZM50.2096 29.9737L54.3766 24.4177C57.1099 26.3892 59.8654 28.3159 62.6211 30.2202L58.9917 35.4626C56.1017 33.6255 53.1893 31.766 50.232 29.9737H50.2096ZM39.0079 38.3974L37.126 40.9514C34.5945 39.3608 32.0629 37.7477 29.5313 36.1795C31.7717 32.9086 34.012 29.6377 36.2523 26.3668L44.1159 31.4972L39.0079 38.3974ZM34.1017 45.1184L28.9937 52.1307C26.5741 50.6371 24.1396 49.2033 21.6902 47.8292L26.9773 40.1225C29.3521 41.7355 31.7941 43.3709 34.2136 45.0288L34.1017 45.1184ZM30.1811 58.0227L38.6719 63.4443C36.8572 65.9311 35.0874 68.4627 33.3847 70.9943C30.5619 69.2468 27.7391 67.4994 24.8938 65.7967C26.7309 63.168 28.5232 60.5543 30.2706 57.9555L30.1811 58.0227ZM32.7126 54.371C34.2958 52.0112 35.8939 49.6737 37.5069 47.3587C40.4194 49.3526 43.3766 51.3018 46.3114 53.2732L41.4051 59.8374C38.5151 57.9555 35.625 56.1185 32.7126 54.371ZM50.008 55.7376C53.3237 57.9779 56.729 60.0614 60.0447 62.2122C58.4765 64.4226 56.9157 66.663 55.3624 68.9332C52.1139 66.6928 48.8878 64.6093 45.6169 62.5034C47.0806 60.1436 48.5443 57.8734 50.008 55.6928V55.7376ZM53.1221 51.2569L59.6862 41.7579L69.947 48.4789C67.6618 51.6154 65.3841 54.7593 63.1139 57.9107C59.7758 55.6031 56.4826 53.3404 53.1221 51.1449V51.2569ZM73.7331 51.0105L80.4541 55.4912C78.154 58.6724 75.9137 61.8835 73.7331 65.1246L67.0121 60.6439C69.2674 57.3431 71.5077 54.0947 73.7331 50.8985V51.0105ZM72.7922 44.6032C69.3719 42.2882 65.9218 40.0029 62.4419 37.7477L64.4357 34.8577C64.7494 34.4096 65.2423 33.5807 65.8696 32.6174C69.3869 34.9921 72.949 37.2996 76.5112 39.5848L72.7922 44.6032ZM62.8451 13.4177C65.3319 15.3668 67.8635 17.271 70.3502 19.1977L64.9734 26.9941C62.2402 25.1421 59.507 23.2752 56.7738 21.3933L62.8451 13.4177ZM51.3522 4.32194C54.1078 6.56227 56.9082 8.8026 59.7086 11.0429C57.6027 13.7313 55.5267 16.4422 53.4805 19.1754C50.7473 17.2711 47.9917 15.3444 45.2585 13.4177C47.2748 10.1916 49.3359 7.21193 51.3522 4.20988V4.32194ZM43.287 16.2181C45.8857 18.2344 48.5517 20.1835 51.1953 22.1325L46.7147 28.0246C43.9815 26.3892 41.2707 24.7089 38.5151 23.1183L43.287 16.2181ZM32.4438 7.48081C34.9529 9.60166 37.4995 11.6777 40.0833 13.7089C38.3657 16.1285 36.6631 18.5555 34.9753 20.99C32.272 19.4965 29.5612 18.0029 26.8429 16.5094C28.2543 14.045 30.6515 10.2812 32.4214 7.32398L32.4438 7.48081ZM17.8592 28.8984L25.0058 19.1305C27.627 20.8108 30.2035 22.5134 32.8246 24.1937C30.5843 27.487 28.344 30.7803 26.1036 34.1184C23.3107 32.4306 20.5103 30.7579 17.7024 29.1L17.8592 28.8984ZM9.14429 40.8842C11.3846 38.0166 13.625 34.9921 15.6189 32.0349C18.3073 33.9914 21.0106 35.9331 23.7289 37.8597C21.9814 40.5631 20.2414 43.2813 18.5089 46.0145C15.3873 44.1177 12.2583 42.3628 9.12187 40.7498L9.14429 40.8842ZM19.4946 51.1449L26.5069 55.6256C24.625 58.2244 22.7655 60.8456 20.9733 63.4892C18.5985 62.1002 16.2462 60.6887 13.849 59.3445L19.4946 51.1449ZM15.014 72.921L7.84493 67.813C8.00478 67.716 8.1422 67.5862 8.24817 67.4321L11.7431 62.3466C13.9834 63.9372 16.2238 65.4606 18.5985 67.0289C17.3589 68.9107 16.164 70.83 15.014 72.7865V72.921ZM27.1566 81.3894C24.1695 79.3283 21.1824 77.2523 18.1953 75.1613C19.5843 73.3541 20.9508 71.517 22.295 69.6501C25.0955 71.532 27.9407 73.369 30.7859 75.2061C29.5089 77.1104 28.2992 79.1715 27.1566 81.255V81.3894ZM41.0243 90.3508C37.5443 88.215 34.124 86.0119 30.7635 83.7417C32.3093 81.8823 33.8104 79.9556 35.2442 77.9617C38.4927 80.0228 41.786 82.0167 45.0568 84.0106C43.735 86.0717 42.3908 88.1776 41.0466 90.2163L41.0243 90.3508ZM47.7453 80.1124C44.564 78.0289 41.3827 75.9454 38.179 73.9067C39.9041 71.3751 41.5843 68.7987 43.2198 66.2447L52.9428 72.4729C51.1505 74.9671 49.4031 77.4987 47.7004 80.0676L47.7453 80.1124ZM59.1709 87.7296C56.4975 85.9075 53.8091 84.0927 51.1058 82.2855C52.9727 79.8212 54.8247 77.3493 56.6618 74.87L64.0549 79.7092C62.3672 82.3378 60.7242 84.9963 59.1261 87.6848L59.1709 87.7296ZM66.2952 76.1918L59.2158 71.3975C60.8288 69.1871 62.4269 66.9467 64.01 64.6765L70.9103 69.0452C69.3271 71.405 67.7813 73.7723 66.2728 76.147L66.2952 76.1918ZM76.6904 83.2265L69.3421 78.253C70.9103 75.8782 72.5009 73.5035 74.114 71.1287C76.6008 72.6745 79.0875 74.1979 81.5519 75.7214C79.9239 78.2007 78.296 80.68 76.668 83.1593L76.6904 83.2265ZM90.1324 61.8313C88.1011 65.2963 86.0251 68.7241 83.9042 72.1145L76.8696 67.1857C79.1099 63.9447 81.3503 60.7186 83.5906 57.5074L90.1324 61.8313ZM83.2097 51.705C80.9694 50.1368 78.7291 48.5685 76.4887 47.0227L80.1405 41.7803C82.5152 43.2813 84.9124 44.6927 87.3096 46.1489C85.8758 47.9561 84.4792 49.7933 83.1201 51.6602L83.2097 51.705Z" fill="#222221"/>
</svg>
