<svg width="290" height="255" viewBox="0 0 290 255" fill="none" xmlns="http://www.w3.org/2000/svg">
<path d="M287.588 224.772C250.12 151.894 210.365 80.2004 168.321 9.6907C160.251 -3.84823 142.053 -2.59711 133.715 9.6907C109.645 45.1838 86.3579 81.1834 63.8533 117.689C52.6755 135.965 41.4977 154.329 30.7893 172.895C21.8471 188.4 12.7036 203.838 5.70629 220.281C-5.09147 231.184 -0.575638 255 19.3432 255L270.263 254.866C286.113 254.911 294.429 238.088 287.588 224.772ZM65.4852 193.181C76.3948 174.705 87.3043 156.251 98.5492 137.975C115.256 110.793 132.396 83.9239 149.967 57.3674C180.296 109.2 209.418 161.709 237.333 214.897H52.6531C56.9454 207.748 61.1259 200.353 65.4852 193.181Z" fill="#FDF373"/>
</svg>
