<svg width="52" height="94" viewBox="0 0 52 94" fill="none" xmlns="http://www.w3.org/2000/svg">
<path d="M51.4185 40.5525C47.8913 20.2347 25.6186 -4.01988 3.0685 0.564177C2.6788 0.500438 2.27977 0.524861 1.90074 0.635656C1.52172 0.746452 1.17238 0.9408 0.87836 1.20441C0.584343 1.46801 0.353158 1.79419 0.201796 2.15891C0.0504347 2.52364 -0.0172436 2.91766 0.00372968 3.31199C0.201885 17.6851 0.901996 32.0317 0.954837 46.4048C1.00768 60.7778 -0.141617 75.1905 0.46606 89.4711C0.093997 90.0938 -0.0374955 90.8311 0.0963329 91.544C0.230161 92.257 0.620096 92.8964 1.19265 93.3418C1.78962 93.7698 2.50569 94 3.24025 94C3.9748 94 4.69092 93.7698 5.28788 93.3418C5.69343 93.3858 6.10367 93.3407 6.48998 93.2097C29.5817 85.7853 56.2931 68.7966 51.4185 40.5525Z" fill="#F4B0D2"/>
</svg>
