<svg width="47" height="44" viewBox="0 0 47 44" fill="none" xmlns="http://www.w3.org/2000/svg">
<path d="M46.0211 1.7898C46.0211 0.749458 45.1708 -0.423707 43.9849 0.151802C30.3315 5.42722 16.2319 9.49387 1.85187 12.3039C1.71177 12.331 1.57974 12.3893 1.46581 12.4744C1.35187 12.5595 1.25903 12.6691 1.19433 12.795C1.12963 12.9208 1.09476 13.0596 1.09239 13.2008C1.09001 13.342 1.12018 13.4819 1.18061 13.6099C0.949738 13.6151 0.725218 13.6857 0.533637 13.8132C0.342055 13.9408 0.191436 14.12 0.0996162 14.3296C0.00779632 14.5392 -0.0213785 14.7705 0.0155466 14.996C0.0524717 15.2215 0.15395 15.4318 0.307964 15.602C10.3769 25.1643 21.4081 33.642 31.2756 43.4921C31.4884 43.6989 31.75 43.8499 32.0367 43.9313C32.3234 44.0127 32.6261 44.0219 32.9174 43.9581C33.2086 43.8944 33.4791 43.7596 33.7043 43.5661C33.9295 43.3726 34.1022 43.1265 34.2068 42.8502C34.5599 42.6507 34.8237 42.3265 34.9452 41.9426C39.0847 29.1043 43.3808 16.2882 46.9385 3.27284C46.9929 3.11574 47.0115 2.94872 46.9931 2.78367C46.9748 2.61862 46.9198 2.45961 46.8322 2.31798C46.7446 2.17635 46.6265 2.05558 46.4863 1.96428C46.3461 1.87299 46.1872 1.81341 46.0211 1.7898ZM32.193 39.4192C23.0862 30.4324 13.4648 21.2243 2.59026 14.4067C17.1003 14.3739 31.3706 10.7438 44.0968 3.84834C39.7783 15.4913 36.0192 27.4442 32.193 39.4192Z" fill="#222221"/>
</svg>
