<svg width="246" height="42" viewBox="0 0 246 42" fill="none" xmlns="http://www.w3.org/2000/svg">
<path d="M243.168 0.311724C229.051 10.4771 213.205 23.1014 203.083 37.3944C193.073 23.7381 180.64 9.84036 165.49 1.58514C165.302 1.48429 165.089 1.43822 164.875 1.4524C164.661 1.46657 164.456 1.54038 164.283 1.66511C164.111 1.78983 163.979 1.96024 163.902 2.15618C163.826 2.35212 163.808 2.56538 163.852 2.77073C163.701 2.51998 163.492 2.30682 163.243 2.14789C162.994 1.98896 162.71 1.88856 162.415 1.85455C162.119 1.82054 161.82 1.85383 161.539 1.95182C161.259 2.04982 161.006 2.20986 160.799 2.41944C148.5 14.6486 135.595 26.241 123.206 38.3604C110.683 26.4606 97.957 14.6266 85.2539 2.8805C85.1365 2.76028 84.9955 2.66459 84.8393 2.59921C84.683 2.53383 84.5148 2.50012 84.3449 2.50012C84.175 2.50012 84.0068 2.53383 83.8506 2.59921C83.6944 2.66459 83.5533 2.76028 83.4359 2.8805C83.162 2.67575 82.8268 2.56482 82.4821 2.56482C82.1374 2.56482 81.8022 2.67575 81.5283 2.8805C68.0308 12.5386 55.9486 23.959 45.6183 36.8235C45.5357 36.6631 45.4299 36.5152 45.3041 36.3844C31.8378 23.782 17.7656 9.20365 1.4266 0.289768C1.22865 0.173917 0.994179 0.133089 0.767528 0.175012C0.540876 0.216935 0.337784 0.3387 0.196743 0.517252C0.055702 0.695804 -0.0135175 0.918748 0.00218911 1.14387C0.0178957 1.369 0.11745 1.58067 0.281982 1.73882C13.3218 15.2194 29.0324 26.263 42.4986 39.1728C42.6866 39.3622 42.9145 39.5093 43.1663 39.6041C43.4182 39.6989 43.6881 39.739 43.9574 39.7216C44.0519 39.9172 44.1886 40.0904 44.3582 40.2291C44.5278 40.3679 44.7262 40.469 44.9396 40.5254C45.1531 40.5817 45.3765 40.5921 45.5944 40.5557C45.8123 40.5192 46.0196 40.4369 46.2018 40.3144C58.7703 29.0294 71.5632 17.5247 83.6604 5.80057C83.719 5.73187 83.7716 5.65842 83.8175 5.58102C94.7148 18.8033 107.074 30.8054 120.67 41.3683C121.017 41.6327 121.442 41.7791 121.882 41.7854C122.061 41.9244 122.282 42 122.51 42C122.739 42 122.96 41.9244 123.139 41.7854C137.589 30.7075 151.099 18.5044 163.538 5.2956C163.806 5.03879 163.99 4.70931 164.066 4.34942C164.142 3.98952 164.107 3.61563 163.964 3.2757C176.757 15.1097 189.438 25.78 199.874 39.8534C200.149 40.232 200.551 40.5048 201.01 40.625C201.468 40.7453 201.956 40.7053 202.388 40.512C202.618 40.6302 202.878 40.6806 203.137 40.6572C203.396 40.6339 203.642 40.5377 203.847 40.3803C211.029 34.5621 217.313 27.4486 224.046 21.1913C230.779 14.934 238.163 9.13779 245.345 3.23179C247.118 1.89251 244.919 -0.939733 243.168 0.311724Z" fill="#222221"/>
</svg>
