<svg width="113" height="69" viewBox="0 0 113 69" fill="none" xmlns="http://www.w3.org/2000/svg">
<path d="M55.0777 0.0218652C40.3189 0.517211 26.3486 6.8126 16.1904 17.5455C6.29573 28.002 -3.25326 45.7708 1.06755 60.5541C4.48099 72.2509 20.1367 71.3711 23.9246 60.5541C26.9924 51.785 26.978 43.7949 33.5744 36.4104C38.5455 30.5827 45.4999 26.8103 53.0901 25.8241C66.1822 24.454 89.4137 34.7374 86.9652 51.136C85.9426 57.958 88.6648 64.8665 95.8805 66.8568C99.1428 67.7045 102.607 67.2464 105.537 65.5798C108.468 63.9132 110.635 61.169 111.579 57.9291C120.74 25.7809 83.6958 -0.872344 55.0777 0.0218652Z" fill="#F7E600"/>
</svg>
