<svg width="83" height="207" viewBox="0 0 83 207" fill="none" xmlns="http://www.w3.org/2000/svg">
<path d="M77.3363 68.9392C52.2446 67.5278 26.5703 66.8781 1.43378 67.707C1.05351 67.707 0.688818 67.858 0.419926 68.1269C0.151034 68.3958 0 68.7606 0 69.1408C0 69.5211 0.151034 69.8858 0.419926 70.1547C0.688818 70.4236 1.05351 70.5746 1.43378 70.5746C26.5031 72.4789 52.1774 72.9718 77.3363 72.6357C77.8265 72.6357 78.2966 72.441 78.6433 72.0944C78.9899 71.7478 79.1846 71.2777 79.1846 70.7875C79.1846 70.2973 78.9899 69.8271 78.6433 69.4805C78.2966 69.1339 77.8265 68.9392 77.3363 68.9392Z" fill="#222221"/>
<path d="M82.1316 67.8645C74.5145 54.4225 66.4492 41.1149 58.4512 27.8074C52.9176 18.51 48.1457 6.41217 38.9155 0.184039C38.7893 0.100001 38.6471 0.0430455 38.4978 0.016704C38.3485 -0.0096375 38.1953 -0.0047878 38.048 0.0309932C37.9007 0.0667743 37.7623 0.132691 37.6417 0.224582C37.5211 0.316472 37.4209 0.432368 37.3473 0.564925C37.1135 0.620664 36.8963 0.730893 36.7133 0.886638C36.5303 1.04238 36.3867 1.23921 36.2943 1.46105C25.7423 23.2595 9.11909 43.1537 0.628224 65.7362C0.202561 66.8788 1.81557 67.2821 2.42046 66.4979C16.6914 47.7911 28.9012 24.9621 39.1844 3.76859C47.272 12.3043 52.6264 25.231 58.496 35.1333C65.217 46.671 71.9381 58.2983 79.1071 69.6568C79.3702 70.0016 79.7507 70.2378 80.1764 70.3206C80.6021 70.4034 81.0434 70.3269 81.4165 70.1058C81.7896 69.8847 82.0685 69.5344 82.2003 69.1212C82.3321 68.708 82.3077 68.2609 82.1316 67.8645Z" fill="#222221"/>
<path d="M77.3363 112.92C52.2446 111.508 26.5703 110.859 1.43378 111.687C1.05351 111.687 0.688818 111.839 0.419926 112.107C0.151034 112.376 0 112.741 0 113.121C0 113.502 0.151034 113.866 0.419926 114.135C0.688818 114.404 1.05351 114.555 1.43378 114.555C26.5031 116.459 52.1774 116.952 77.3363 116.616C77.8265 116.616 78.2966 116.421 78.6433 116.075C78.9899 115.728 79.1846 115.258 79.1846 114.768C79.1846 114.278 78.9899 113.808 78.6433 113.461C78.2966 113.114 77.8265 112.92 77.3363 112.92Z" fill="#222221"/>
<path d="M82.1316 111.8C74.5145 98.3581 66.4492 85.0505 58.4512 71.7429C52.9176 62.4455 48.1457 50.3477 38.9155 44.1196C38.7893 44.0355 38.6471 43.9786 38.4978 43.9523C38.3485 43.9259 38.1953 43.9308 38.048 43.9665C37.9007 44.0023 37.7623 44.0682 37.6417 44.1601C37.5211 44.252 37.4209 44.3679 37.3473 44.5005C37.1158 44.5539 36.9 44.6608 36.7172 44.8125C36.5343 44.9642 36.3895 45.1565 36.2943 45.3742C25.7423 67.1726 9.11909 87.0668 0.628224 109.649C0.202561 110.792 1.81557 111.195 2.42046 110.411C16.6914 91.7043 28.9012 68.8753 39.1844 47.6817C47.272 56.2174 52.6264 69.1441 58.496 79.0464C65.217 90.5841 71.9381 102.211 79.1071 113.57C79.3721 113.904 79.7486 114.131 80.1674 114.209C80.5862 114.287 81.0192 114.212 81.387 113.997C81.7547 113.782 82.0325 113.441 82.1693 113.037C82.306 112.634 82.2927 112.195 82.1316 111.8Z" fill="#222221"/>
<path d="M77.3363 161.38C52.2446 159.968 26.5703 159.319 1.43378 160.147C1.05351 160.147 0.688818 160.298 0.419926 160.567C0.151034 160.836 0 161.201 0 161.581C0 161.962 0.151034 162.326 0.419926 162.595C0.688818 162.864 1.05351 163.015 1.43378 163.015C26.5031 164.919 52.1774 165.412 77.3363 165.076C77.8265 165.076 78.2966 164.881 78.6433 164.535C78.9899 164.188 79.1846 163.718 79.1846 163.228C79.1846 162.738 78.9899 162.268 78.6433 161.921C78.2966 161.574 77.8265 161.38 77.3363 161.38Z" fill="#222221"/>
<path d="M82.1316 160.305C74.5145 146.863 66.4492 133.555 58.4512 120.248C52.9176 110.95 48.1457 98.8526 38.9155 92.6245C38.7893 92.5405 38.6471 92.4835 38.4978 92.4571C38.3485 92.4308 38.1953 92.4357 38.048 92.4714C37.9007 92.5072 37.7623 92.5731 37.6417 92.665C37.5211 92.7569 37.4209 92.8728 37.3473 93.0053C37.1158 93.0588 36.9 93.1656 36.7172 93.3173C36.5343 93.4691 36.3895 93.6614 36.2943 93.8791C25.7423 115.678 9.11909 135.572 0.628224 158.154C0.202561 159.297 1.81557 159.7 2.42046 158.916C16.6914 140.209 28.9012 117.38 39.1844 96.1866C47.272 104.722 52.6264 117.649 58.496 127.551C65.217 139.089 71.9381 150.716 79.1071 162.075C79.3721 162.409 79.7486 162.635 80.1674 162.714C80.5862 162.792 81.0192 162.717 81.387 162.502C81.7547 162.287 82.0325 161.946 82.1693 161.542C82.306 161.139 82.2927 160.699 82.1316 160.305Z" fill="#222221"/>
<path d="M82.1316 204.302C74.5145 190.86 66.4492 177.552 58.4512 164.245C52.9176 154.947 48.1457 142.85 38.9155 136.622C38.7893 136.538 38.6471 136.481 38.4978 136.454C38.3485 136.428 38.1953 136.433 38.048 136.469C37.9007 136.504 37.7623 136.57 37.6417 136.662C37.5211 136.754 37.4209 136.87 37.3473 137.002C37.1135 137.058 36.8963 137.168 36.7133 137.324C36.5303 137.48 36.3867 137.677 36.2943 137.899C25.7423 159.697 9.11909 179.591 0.628224 202.174C0.202561 203.316 1.81557 203.72 2.42046 202.935C16.6914 184.229 28.9012 161.4 39.1844 140.206C47.272 148.742 52.6264 161.668 58.496 171.571C65.217 183.108 71.9381 194.736 79.1071 206.094C79.3702 206.439 79.7507 206.675 80.1764 206.758C80.6021 206.841 81.0434 206.764 81.4165 206.543C81.7896 206.322 82.0685 205.972 82.2003 205.559C82.3321 205.146 82.3077 204.698 82.1316 204.302Z" fill="#222221"/>
</svg>
