<svg width="112" height="110" viewBox="0 0 112 110" fill="none" xmlns="http://www.w3.org/2000/svg">
<path d="M48.6023 86.198L48.5718 86.191C43.203 84.9629 37.7616 83.6702 33.1457 79.2298L33.1428 79.2271C29.9657 76.1219 27.488 72.3727 25.8756 68.2306C24.2632 64.0885 23.5535 59.6492 23.7939 55.21L23.794 55.2073C24.7493 39.1934 37.4015 25.1791 53.617 24.0941C61.9382 23.4967 70.1961 25.9188 76.8806 30.9173L76.8867 30.9218L76.8867 30.9219C84.9689 37.1597 87.5345 45.9607 87.6998 55.7067M48.6023 86.198L85.8896 70.5455M48.6023 86.198L48.6334 86.2011C58.6041 87.2011 68.6265 84.89 77.1563 79.6239M48.6023 86.198L77.1563 79.6239M87.6998 55.7067C87.6998 55.7068 87.6998 55.7069 87.6998 55.707L87.1998 55.7155L87.6998 55.7066C87.6998 55.7066 87.6998 55.7067 87.6998 55.7067ZM87.6998 55.7067C87.7116 56.3704 87.7332 57.066 87.7555 57.7829C87.8093 59.5154 87.867 61.3732 87.8002 63.2102C87.7054 65.8147 87.3605 68.4454 86.3765 70.7424L86.2466 71.0455H86.2139M86.2139 71.0455C86.2604 70.9453 86.3055 70.8443 86.3492 70.7424L85.9169 70.5572L85.8896 70.5455M86.2139 71.0455C84.4239 74.8999 80.5134 77.5774 77.1563 79.6239M86.2139 71.0455H85.9169H85.8896V70.5455M85.8896 70.5455L77.1563 79.6239M109.965 42.4494L109.965 42.4495C112.184 54.8694 112.612 70.3212 107.018 81.8355C96.9266 102.588 70.6184 110.446 48.4746 109.411L48.456 109.41L48.4373 109.41C39.2612 109.666 29.2268 105.351 22.2808 100.293L22.2801 100.293C11.2967 92.3269 3.7932 80.4359 1.32337 67.082C-0.578199 55.9158 0.830772 44.4362 5.37599 34.0636C9.92157 23.6901 17.4044 14.879 26.8984 8.72032C45.4963 -3.25797 71.6679 -1.86865 89.4165 11.0825L89.4166 11.0827C99.8687 18.7025 107.671 29.5861 109.965 42.4494Z" stroke="black"/>
</svg>
