<svg width="170" height="173" viewBox="0 0 170 173" fill="none" xmlns="http://www.w3.org/2000/svg">
<path d="M167.762 20.3497C167.659 15.0642 165.513 10.0239 161.775 6.28578C158.037 2.54763 152.997 0.401939 147.711 0.298721C123.396 1.01152e-05 99.0811 -0.0746813 74.766 0.0746743C62.9819 0.149352 51.1902 0.283824 39.3911 0.477986C27.4053 0.679616 13.2464 0.164279 6.21179 12.038C0.857393 20.9994 1.91038 33.4557 1.48472 43.6044C0.976911 55.2691 0.603522 66.9412 0.364553 78.6208C-0.12832 103.264 -0.643597 128.446 2.60489 153.045C2.80826 155.532 3.50014 157.954 4.64093 160.173C5.78173 162.393 7.349 164.365 9.25308 165.978C11.1572 167.591 13.3607 168.812 15.7374 169.572C18.1141 170.332 20.6174 170.616 23.1039 170.407C43.1325 173.633 64.7293 171.863 84.8923 171.751C106.205 171.632 127.518 171.281 148.831 170.699C154.152 170.612 159.23 168.46 162.993 164.697C166.756 160.935 168.908 155.856 168.994 150.536C170.548 107.163 170.137 63.7674 167.762 20.3497ZM39.772 131.157C40.5337 100.8 39.0103 70.2196 41.0938 39.9527C55.992 39.4822 71.0919 40.0871 85.9005 39.9527C100.149 39.9527 114.398 40.0124 128.646 40.1319C129.841 70.3764 130.065 100.628 129.318 130.888C114.51 131.201 99.6786 131.448 84.87 131.515C70.0613 131.582 54.7599 130.664 39.772 131.157Z" fill="#F2BBD6"/>
<path d="M159.564 151.48C165.212 105.926 162.578 59.7272 151.79 15.1108C151.677 14.7217 151.453 14.3739 151.145 14.1102C150.838 13.8464 150.46 13.6781 150.058 13.6258C149.656 13.5735 149.248 13.6395 148.883 13.8157C148.518 13.9919 148.213 14.2707 148.004 14.6179L147.601 15.1555C147.417 14.9674 147.198 14.8187 146.955 14.7185C146.712 14.6184 146.452 14.5688 146.189 14.573C124.144 14.3042 101.965 15.738 79.9201 16.4101L48.9811 17.3511C39.7061 17.6423 28.5716 16.2309 19.6551 18.9193C19.2869 19.0235 18.9514 19.2202 18.6808 19.4908C18.4102 19.7615 18.2134 20.0969 18.1093 20.4651C15.8689 29.5385 17.9748 40.6281 18.1093 49.8583L19.0054 83.0376C19.6327 105.889 19.8568 128.808 21.5146 151.614C21.5247 151.83 21.5796 152.041 21.6761 152.234C21.7726 152.427 21.9084 152.597 22.0747 152.734C22.0063 152.982 21.9953 153.241 22.0427 153.493C22.0901 153.745 22.1946 153.983 22.3481 154.189C22.5016 154.394 22.7002 154.562 22.9285 154.678C23.1568 154.795 23.4089 154.858 23.6653 154.863C68.248 157.103 113.436 155.58 158.085 155.333C158.525 155.319 158.952 155.174 159.31 154.919C159.669 154.663 159.944 154.308 160.102 153.897C160.26 153.486 160.293 153.037 160.197 152.607C160.102 152.177 159.881 151.785 159.564 151.48ZM24.6958 151.48C25.0767 130.914 24.2478 110.325 23.6877 89.7586L22.8588 58.7973L22.4331 43.3166C22.4331 39.3288 20.5513 31.4428 22.0075 27.8358C25.6368 18.8745 45.6654 21.9662 53.3722 21.7421L84.356 20.7564C104.922 20.1291 125.69 20.1963 146.212 18.6729H146.458C146.458 19.0313 146.458 19.4346 146.458 19.9947C146.458 20.2546 146.531 20.5092 146.668 20.7298C146.806 20.9503 147.002 21.1278 147.236 21.2422C147.469 21.3566 147.73 21.4032 147.989 21.3767C148.247 21.3502 148.493 21.2517 148.698 21.0924C156.657 63.9169 159.335 107.555 156.674 151.032C112.808 150.696 68.472 149.24 24.6958 151.39V151.48Z" fill="#222221"/>
</svg>
