<svg width="275" height="108" viewBox="0 0 275 108" fill="none" xmlns="http://www.w3.org/2000/svg">
<path d="M274.482 19.8397C274.565 19.5558 274.579 19.2567 274.525 18.9663C274.47 18.6758 274.348 18.4021 274.169 18.1669C269.906 12.0678 265.27 6.23546 260.289 0.702593C260.156 0.555202 259.994 0.435825 259.813 0.351569C259.632 0.267312 259.437 0.219866 259.237 0.211894C258.924 0.0722432 258.584 0 258.241 0C257.898 0 257.558 0.0722432 257.245 0.211894C252.32 2.44233 249.521 6.72478 246.052 10.7396L230.157 29.386C221.606 39.4453 212.808 49.4599 204.861 59.9207C204.755 59.6769 204.611 59.4511 204.435 59.2516C188.764 41.3675 174.612 22.2164 162.125 1.99622C161.938 1.68415 161.682 1.4184 161.377 1.21882C161.072 1.01924 160.726 0.891042 160.364 0.843834C160.002 0.796625 159.634 0.831607 159.288 0.946207C158.941 1.06081 158.626 1.25202 158.364 1.50552C139.873 21.7802 120.8 41.6534 103.249 62.8202C96.9464 51.5845 89.9328 40.7599 82.2503 30.412C76.2507 22.1594 70.0721 12.3454 61.61 6.524C61.4412 6.40184 61.2365 6.3391 61.0279 6.3456C60.8674 5.94061 60.6015 5.58548 60.2577 5.31669C59.9139 5.04789 59.5045 4.87509 59.0715 4.81605C58.6385 4.75702 58.1975 4.81383 57.7939 4.98071C57.3902 5.14759 57.0384 5.41854 56.7745 5.76566C38.8654 29.2299 20.3742 51.735 1.00998 73.9947C0.784177 74.2402 0.632788 74.5444 0.573358 74.872C0.513928 75.1996 0.548902 75.5373 0.674195 75.846C0.466428 75.9872 0.296416 76.1768 0.178925 76.3984C0.061433 76.62 0 76.8668 0 77.1173C0 77.3679 0.061433 77.6147 0.178925 77.8363C0.296416 78.0578 0.466428 78.2475 0.674195 78.3887C7.16884 83.184 12.9889 88.8252 17.9789 95.1616C18.1618 95.4631 18.4107 95.7196 18.707 95.912C19.0033 96.1043 19.3393 96.2276 19.69 96.2726C20.0407 96.3176 20.3971 96.2832 20.7326 96.172C21.0682 96.0607 21.3742 95.8755 21.6279 95.63C35.6567 80.5671 49.5885 65.3927 63.4233 50.1068C70.6541 58.3371 76.1835 68.5525 82.3398 77.5411L102.174 106.827C102.364 107.139 102.622 107.405 102.929 107.605C103.236 107.804 103.584 107.933 103.947 107.98C104.311 108.027 104.68 107.992 105.028 107.877C105.376 107.763 105.694 107.571 105.957 107.317C125.819 87.5607 144.663 66.8133 162.416 45.1552C171.371 57.9579 181.221 70.0245 190.802 82.2697C194.675 87.2212 200.45 100.983 207.995 96.7675C213.144 93.8902 218.852 84.8347 222.814 80.4184L240.007 61.259L274.37 22.9177C274.755 22.5026 274.978 21.964 274.998 21.3994C275.019 20.8347 274.836 20.2815 274.482 19.8397ZM216.546 80.0615C214.643 82.292 212.763 84.3439 210.815 86.4406C209.503 88.1004 208.041 89.6383 206.45 91.0353C205.346 92.9981 204.398 92.894 203.607 90.723C199.13 88.7379 194.652 79.2586 191.496 75.333C182.541 64.0247 173.967 52.4933 164.341 41.8765C164.341 39.936 162.103 38.2631 160.468 40.0921C142.559 61.2812 124.09 81.9797 104.502 101.786L82.4965 69.8015C77.37 62.3742 72.6017 52.9171 65.1247 47.4971C65.1844 47.0117 65.0916 46.5198 64.8589 46.0891C64.6263 45.6584 64.2653 45.3102 63.8258 45.0924C63.3862 44.8747 62.8897 44.7981 62.4047 44.8733C61.9196 44.9484 61.4699 45.1716 61.1175 45.5121C47.2827 60.4858 33.5225 75.5338 19.837 90.6561C15.0727 85.225 9.50093 80.5538 3.31578 76.8051L3.49487 76.6713C24.5761 55.8638 43.6162 33.0994 60.3563 8.68753C65.2813 18.7245 74.0344 27.1779 80.5041 36.3227C87.22 45.8244 93.2868 55.7498 99.4654 65.6306C99.6357 65.907 99.8645 66.1431 100.136 66.3224C100.407 66.5017 100.714 66.6198 101.036 66.6686C101.358 66.7175 101.687 66.6958 101.999 66.6051C102.312 66.5145 102.601 66.357 102.846 66.1436C102.99 66.2948 103.164 66.4151 103.356 66.4974C103.549 66.5796 103.756 66.622 103.965 66.622C104.174 66.622 104.382 66.5796 104.574 66.4974C104.766 66.4151 104.94 66.2948 105.084 66.1436C124.001 47.2964 141.686 27.0886 159.685 7.34925C171.965 26.8652 185.783 45.3768 201.01 62.7087C201.209 62.9605 201.465 63.1622 201.757 63.2978C202.048 63.4334 202.368 63.499 202.689 63.4894C202.753 63.768 202.889 64.0251 203.083 64.2358C203.277 64.4464 203.522 64.6032 203.796 64.6909C204.069 64.7786 204.36 64.7941 204.641 64.736C204.922 64.6778 205.182 64.548 205.398 64.3592C214.823 54.9022 223.307 44.5753 232.038 34.4714L243.656 20.9549C247.91 15.9811 252.768 8.06301 258.789 4.78426C262.252 10.2466 265.987 15.532 269.983 20.6204L216.546 80.0615Z" fill="#222221"/>
</svg>
