<svg width="109" height="91" viewBox="0 0 109 91" fill="none" xmlns="http://www.w3.org/2000/svg">
<mask id="path-1-inside-1" fill="white">
<path d="M108.884 86.4743C108.889 86.0617 108.793 85.6541 108.604 85.2869C101.893 72.0942 94.947 58.9895 87.5885 46.1193C80.6863 34.0553 74.0489 21.1997 65.1452 10.5137C65.0046 10.3341 64.8203 10.1934 64.6097 10.1049C64.3991 10.0164 64.1693 9.98308 63.9421 10.0081C63.7149 10.033 63.498 10.1155 63.3118 10.2476C63.1257 10.3797 62.9766 10.5571 62.8788 10.7629C62.5783 10.8256 62.2934 10.9474 62.0407 11.121C61.788 11.2947 61.5726 11.5168 61.4071 11.7743C55.226 21.0385 49.7807 30.7278 44.5267 40.5344L44.1294 41.0328C43.7431 41.5002 43.489 42.0619 43.3935 42.6599L40.0381 48.9777C33.3713 61.628 25.7038 73.7946 19.1842 86.4889C19.0454 86.7687 18.9832 87.0801 19.0039 87.3915C19.0246 87.7029 19.1274 88.0034 19.3019 88.2626C19.2276 88.4886 19.2096 88.7291 19.2495 88.9636C19.2893 89.198 19.3859 89.4193 19.5307 89.6083C19.6756 89.7973 19.8644 89.9483 20.0809 90.0484C20.2975 90.1485 20.5352 90.1947 20.7736 90.1829C34.8724 91.7367 49.5011 90.6373 63.6735 90.4174C77.8459 90.1975 92.2685 89.963 106.559 89.6991C106.946 89.692 107.326 89.5951 107.668 89.4159C108.011 89.2368 108.307 88.9805 108.533 88.6673C108.759 88.3542 108.908 87.9929 108.969 87.6122C109.03 87.2314 109.001 86.8418 108.884 86.4743Z"/>
</mask>
<path d="M108.884 86.4743C108.889 86.0617 108.793 85.6541 108.604 85.2869C101.893 72.0942 94.947 58.9895 87.5885 46.1193C80.6863 34.0553 74.0489 21.1997 65.1452 10.5137C65.0046 10.3341 64.8203 10.1934 64.6097 10.1049C64.3991 10.0164 64.1693 9.98308 63.9421 10.0081C63.7149 10.033 63.498 10.1155 63.3118 10.2476C63.1257 10.3797 62.9766 10.5571 62.8788 10.7629C62.5783 10.8256 62.2934 10.9474 62.0407 11.121C61.788 11.2947 61.5726 11.5168 61.4071 11.7743C55.226 21.0385 49.7807 30.7278 44.5267 40.5344L44.1294 41.0328C43.7431 41.5002 43.489 42.0619 43.3935 42.6599L40.0381 48.9777C33.3713 61.628 25.7038 73.7946 19.1842 86.4889C19.0454 86.7687 18.9832 87.0801 19.0039 87.3915C19.0246 87.7029 19.1274 88.0034 19.3019 88.2626C19.2276 88.4886 19.2096 88.7291 19.2495 88.9636C19.2893 89.198 19.3859 89.4193 19.5307 89.6083C19.6756 89.7973 19.8644 89.9483 20.0809 90.0484C20.2975 90.1485 20.5352 90.1947 20.7736 90.1829C34.8724 91.7367 49.5011 90.6373 63.6735 90.4174C77.8459 90.1975 92.2685 89.963 106.559 89.6991C106.946 89.692 107.326 89.5951 107.668 89.4159C108.011 89.2368 108.307 88.9805 108.533 88.6673C108.759 88.3542 108.908 87.9929 108.969 87.6122C109.03 87.2314 109.001 86.8418 108.884 86.4743Z" stroke="black" stroke-width="2" mask="url(#path-1-inside-1)"/>
<path d="M89.8839 76.4743C89.8891 76.0617 89.7931 75.6541 89.6043 75.2869C82.8934 62.0942 75.947 48.9895 68.5885 36.1193C61.6863 24.0553 55.0489 11.1997 46.1452 0.513659C46.0046 0.334135 45.8203 0.193426 45.6097 0.104925C45.3991 0.0164238 45.1693 -0.0169244 44.9421 0.00805442C44.7149 0.0330333 44.498 0.115508 44.3118 0.247628C44.1257 0.379749 43.9766 0.557118 43.8788 0.762854C43.5783 0.825607 43.2934 0.947371 43.0407 1.12103C42.788 1.2947 42.5726 1.51677 42.4071 1.77429C36.226 11.0385 30.7807 20.7278 25.5267 30.5344L25.1294 31.0328C24.7431 31.5002 24.489 32.0619 24.3935 32.6599L21.0381 38.9777C14.3713 51.628 6.70378 63.7946 0.184182 76.4889C0.0453969 76.7687 -0.0167919 77.0801 0.0038802 77.3915C0.0245523 77.7029 0.127356 78.0034 0.30192 78.2626C0.227622 78.4886 0.209626 78.7291 0.249484 78.9636C0.289343 79.198 0.385855 79.4193 0.530704 79.6083C0.675553 79.7973 0.864395 79.9483 1.08093 80.0484C1.29746 80.1485 1.53519 80.1947 1.77361 80.1829C15.8724 81.7367 30.5011 80.6373 44.6735 80.4174C58.8459 80.1975 73.2685 79.963 87.5586 79.6991C87.9456 79.692 88.3256 79.5951 88.6684 79.4159C89.0112 79.2368 89.3072 78.9805 89.533 78.6673C89.7588 78.3542 89.9081 77.9929 89.969 77.6122C90.0299 77.2314 90.0008 76.8418 89.8839 76.4743Z" fill="#969AE6"/>
</svg>
