<svg width="309" height="56" viewBox="0 0 309 56" fill="none" xmlns="http://www.w3.org/2000/svg">
<path d="M273.759 19.2403C263.543 27.888 252.946 35.886 242.394 44.1528C232.312 34.945 222.948 24.9979 212.821 15.8574C212.244 15.4113 211.574 15.0997 210.86 14.9454C210.147 14.7911 209.408 14.7979 208.698 14.9653C207.987 15.1327 207.323 15.4565 206.754 15.9132C206.184 16.3698 205.724 16.9477 205.406 17.6048L205.227 17.7393C198.749 23.8707 191.935 29.6373 184.817 35.0122C181.39 37.499 176.483 39.6721 173.616 43.055C170.39 39.2241 165.461 35.9532 162.414 33.108C155.745 26.4578 148.699 20.1969 141.31 14.3564C140.829 13.976 140.262 13.7184 139.659 13.6057C139.056 13.4929 138.434 13.5285 137.848 13.7092C137.261 13.89 136.728 14.2105 136.293 14.6433C135.858 15.076 135.534 15.608 135.351 16.1934C123.499 23.9376 112.57 33.0099 102.776 43.2343C93.4681 35.5425 84.758 27.1545 76.7212 18.1425C76.5196 14.6028 73.0919 11.4215 69.5745 14.0427C63.2717 18.8221 56.9764 23.6239 50.6885 28.4481C46.8127 31.4053 41.7272 34.3401 38.2995 38.1263C30.0673 26.8639 18.6865 18.2894 5.59058 13.4826C0.661843 11.8472 -2.20578 19.1507 2.11806 21.7271C8.50521 25.1303 14.5714 29.1044 20.2424 33.6008C25.3691 38.3598 30.0141 43.6126 34.11 49.2832C36.888 52.8453 41.9288 49.8657 42.3769 46.1243C47.5968 44.0184 52.3688 39.4033 56.6478 36.0876L70.4258 25.6924C78.5807 35.9308 88.1469 46.0571 99.2365 52.8677C100.266 53.5058 101.502 53.7222 102.687 53.4718C103.873 53.2214 104.916 52.5236 105.599 51.5235C111.693 47.5009 117.529 43.1012 123.074 38.3503C128.563 34.0041 134.275 29.7923 139.607 25.2668C143.752 29.5458 148.322 33.4888 152.646 37.5438L160.174 44.5785L164.878 49.0591C165.304 49.4624 165.931 50.2913 166.447 50.8962C166.672 51.6111 167.037 52.2738 167.522 52.8453L167.88 53.271C168.655 54.0303 169.656 54.5158 170.732 54.6533C171.808 54.7908 172.899 54.5729 173.84 54.0327L174.445 53.7414C175.049 53.3919 175.574 52.9207 175.987 52.3577C176.399 51.7946 176.69 51.152 176.842 50.4705C182.219 50.0001 187.752 45.0713 191.807 42.1589C198.421 37.5029 204.64 32.3102 210.402 26.6334C219.093 36.3958 228.458 45.5364 238.428 53.9879C239.007 54.4934 239.69 54.8638 240.429 55.0724C241.168 55.2809 241.945 55.3224 242.702 55.1937C243.459 55.065 244.178 54.7694 244.807 54.3283C245.435 53.8873 245.958 53.3118 246.337 52.6437C258.965 45.4611 270.538 36.5647 280.726 26.2077C285.251 21.6598 278.53 15.2077 273.759 19.2403Z" fill="#80BDC4"/>
<path d="M307.901 12.9029C306.4 11.2898 304.675 9.83363 303.017 8.42222C301.551 6.92661 299.875 5.65131 298.043 4.63605C297.92 4.57448 297.784 4.5402 297.646 4.53556C297.508 4.53091 297.371 4.55599 297.243 4.60911C297.116 4.66223 297.001 4.74214 296.908 4.84343C296.814 4.94471 296.743 5.065 296.699 5.19613C296.565 4.95691 296.378 4.75092 296.153 4.59329C295.928 4.43566 295.671 4.33042 295.4 4.28528C295.13 4.24015 294.852 4.25628 294.589 4.33249C294.325 4.4087 294.081 4.54305 293.876 4.72566C284.669 12.4324 275.304 20.0271 266.141 27.8011C266.08 27.7212 266.013 27.6462 265.939 27.5771C254.379 18.9742 243.178 10.0353 232.2 0.693062C232.081 0.516703 231.928 0.366292 231.75 0.250965C231.571 0.135638 231.371 0.0578009 231.162 0.0221814C230.952 -0.0134381 230.737 -0.00609682 230.531 0.0437595C230.324 0.0936158 230.13 0.184947 229.96 0.312205C217.767 8.97768 206.208 18.5008 195.369 28.8093C195.216 28.6007 195.017 28.4297 194.788 28.3094C194.559 28.189 194.306 28.1225 194.047 28.1147C188.558 27.9803 181.367 18.1901 177.603 14.6727C173.122 10.3713 168.44 6.11467 163.601 2.10447C163.335 1.87004 162.992 1.74234 162.638 1.74602C162.398 1.57932 162.112 1.48998 161.82 1.48998C161.528 1.48998 161.242 1.57932 161.002 1.74602C149.586 9.90103 138.719 18.7995 128.473 28.3836C118.623 18.1319 107.573 9.10538 95.5621 1.49958C95.3414 1.3618 95.0815 1.30033 94.8225 1.32461C94.5634 1.3489 94.3195 1.4576 94.1283 1.634C93.8936 1.52233 93.632 1.47988 93.3741 1.51162C93.1161 1.54337 92.8726 1.64799 92.6721 1.81323C86.892 6.02506 81.2688 10.4385 75.6455 14.8744C70.6272 18.8622 64.1974 22.9172 60.4561 28.3164C49.8817 20.1616 39.1057 12.2308 28.0384 4.81528C27.9412 4.49608 27.7523 4.2125 27.4952 3.99977C27.2381 3.78704 26.9241 3.65454 26.5924 3.61874C26.2606 3.58294 25.9257 3.64541 25.6291 3.79839C25.3325 3.95138 25.0875 4.18813 24.9244 4.47923C22.6947 8.24453 19.8207 11.5887 16.4335 14.3591C16.2777 14.484 16.1553 14.6455 16.0771 14.8293C15.9989 15.013 15.9674 15.2132 15.9854 15.4121C15.812 15.6322 15.7294 15.9102 15.7544 16.1893C15.7794 16.4683 15.9101 16.7273 16.1198 16.9131C29.5619 28.8765 45.065 38.5547 60.3216 47.8521C60.5577 47.9981 60.8238 48.0888 61.1 48.1172C61.3761 48.1457 61.6551 48.1112 61.916 48.0163C62.1769 47.9214 62.4129 47.7687 62.6062 47.5695C62.7996 47.3703 62.9453 47.1299 63.0324 46.8663C73.5646 39.4001 83.6485 31.3209 93.2321 22.6707C103.45 32.1817 114.823 40.3708 127.084 47.0456C127.333 47.1894 127.613 47.2732 127.9 47.2904C128.188 47.3076 128.476 47.2578 128.741 47.1448C129.006 47.0319 129.241 46.8589 129.428 46.6395C129.614 46.4201 129.748 46.1603 129.817 45.8806C130.006 46.1104 130.274 46.2609 130.568 46.3024C130.863 46.3439 131.162 46.2733 131.407 46.1046C142.166 39.0328 151.803 30.3858 159.994 20.4528C171.599 29.2573 179.619 42.8561 192.905 49.3979C193.309 49.6069 193.772 49.6698 194.218 49.5759C194.663 49.482 195.061 49.2371 195.347 48.8826C195.426 49.0512 195.543 49.1991 195.689 49.3149C195.835 49.4307 196.006 49.5113 196.188 49.5503C196.37 49.5893 196.558 49.5858 196.739 49.5399C196.92 49.4941 197.087 49.4071 197.228 49.2859C209.303 40.3312 220.901 30.752 231.976 20.5872C242.774 29.8398 254.155 38.5099 265.581 47.0232C265.786 47.1555 266.017 47.2429 266.258 47.2794C266.499 47.316 266.746 47.301 266.981 47.2354C267.216 47.1697 267.434 47.055 267.622 46.8987C267.809 46.7424 267.961 46.5481 268.068 46.3287C268.414 46.3909 268.772 46.3274 269.076 46.1494C282.841 38.3506 295.582 28.8683 307.005 17.9212C307.326 17.654 307.538 17.2781 307.599 16.8651C307.661 16.452 307.569 16.0305 307.341 15.6809C307.618 15.5954 307.867 15.4367 308.062 15.2215C308.256 15.0064 308.389 14.7427 308.447 14.4583C308.504 14.174 308.483 13.8794 308.387 13.6057C308.291 13.3319 308.123 13.0891 307.901 12.9029ZM267.575 43.5283C267.511 43.5832 267.451 43.6431 267.396 43.7075C256.082 34.7461 244.477 25.7848 232.491 17.5628C232.363 17.4747 232.218 17.4137 232.066 17.3836C231.704 17.1109 231.264 16.9635 230.811 16.9635C230.358 16.9635 229.918 17.1109 229.556 17.3836C217.788 26.5753 206.511 36.3791 195.772 46.7543C195.611 46.3869 195.336 46.0808 194.988 45.8806C182.084 38.4875 174.063 25.4263 161.383 17.9212C161.193 17.8019 160.979 17.7254 160.756 17.6972C160.416 17.2992 159.938 17.0453 159.418 16.987C158.898 16.9288 158.375 17.0706 157.955 17.3836C153.071 21.573 148.748 26.5241 144.043 30.8256C139.338 35.127 134.387 39.4284 129.794 43.9315C129.723 44.0127 129.663 44.1031 129.615 44.2003C129.463 43.9942 129.273 43.8193 129.055 43.6851C117.249 36.4264 106.226 28.3836 94.9572 20.3632C94.9179 20.006 94.7828 19.6661 94.5662 19.3794C94.3496 19.0928 94.0596 18.8699 93.7268 18.7345C93.3939 18.5991 93.0307 18.5561 92.6755 18.6101C92.3203 18.6641 91.9862 18.8132 91.7087 19.0414C81.8288 27.353 71.5457 35.463 62.1139 44.1779C47.3501 35.3958 33.6841 25.2247 19.1891 15.9273C22.4148 13.6867 25.126 10.7845 27.1423 7.41407C37.4254 15.8377 48.067 23.8581 58.8206 31.6769C60.3665 32.797 61.7779 31.1392 61.509 29.6382C66.5498 27.3978 70.896 22.9172 75.2199 19.5791C81.5824 14.5831 88.0122 9.6768 94.4195 4.72566C94.5994 4.58303 94.7513 4.40833 94.8676 4.21039C105.375 13.4406 115.815 22.4019 126.299 31.5201C126.501 31.7042 126.74 31.8423 127 31.925C127.26 32.0076 127.534 32.0328 127.805 31.9987C128.076 31.9646 128.336 31.8721 128.567 31.7275C128.798 31.583 128.995 31.3899 129.145 31.1616C129.369 31.1562 129.587 31.0861 129.772 30.96C141.197 23.0363 152.1 14.3857 162.414 5.06171C168.216 11.3571 174.467 17.2491 180.628 23.186C184.414 26.8154 188.536 32.8643 194.383 31.7665C194.59 31.7349 194.789 31.6609 194.966 31.5491C195.144 31.4374 195.296 31.2902 195.414 31.1168C195.679 31.3258 196.006 31.4394 196.344 31.4394C196.681 31.4394 197.008 31.3258 197.273 31.1168C208.475 21.8866 219.677 12.8581 231.282 4.23279C241.292 13.9106 252.065 22.7661 263.498 30.7135C263.528 30.8971 263.601 31.0711 263.711 31.2219C263.82 31.3728 263.962 31.4963 264.127 31.5831C264.292 31.6698 264.474 31.7173 264.661 31.7219C264.847 31.7265 265.031 31.6881 265.2 31.6097C276.757 25.175 287.266 17.0161 296.363 7.41407C296.675 7.10441 296.859 6.68842 296.879 6.24909C297.946 7.9035 299.226 9.41003 300.687 10.7298C302.031 12.074 303.375 13.4406 304.809 14.6952C304.549 14.7774 304.306 14.9065 304.092 15.076C292.129 24.9111 279.852 34.1637 267.508 43.5507L267.575 43.5283Z" fill="#222221"/>
</svg>
