<svg width="245" height="217" viewBox="0 0 245 217" fill="none" xmlns="http://www.w3.org/2000/svg">
<path d="M243.892 4.30982C238.52 3.4307 233.087 2.97506 227.643 2.94704C227.434 2.73998 227.186 2.57613 226.914 2.46495C226.642 2.35377 226.35 2.29744 226.056 2.29913C151.449 1.5172 76.6856 -0.739278 2.10098 0.243728C1.54377 0.243728 1.00936 0.465006 0.61535 0.858843C0.22134 1.25268 0 1.78682 0 2.34379C0 2.90076 0.22134 3.43497 0.61535 3.82881C1.00936 4.22265 1.54377 4.44386 2.10098 4.44386C17.0313 40.614 35.9625 75.5778 54.3125 110.095C73.3256 145.84 93.3072 181.087 114.257 215.835C114.475 216.191 114.78 216.485 115.144 216.689C115.508 216.893 115.919 217 116.336 217C116.753 217 117.164 216.893 117.527 216.689C117.891 216.485 118.197 216.191 118.415 215.835C124.747 207.018 130.983 198.133 137.122 189.182H138.709C139.146 189.159 139.562 188.993 139.894 188.709C140.227 188.425 140.457 188.04 140.548 187.613C140.64 187.186 140.588 186.741 140.401 186.346C140.214 185.951 139.902 185.629 139.514 185.429C178.045 129.12 212.91 70.3906 243.892 9.60463C244.114 9.24956 244.232 8.83928 244.232 8.42056C244.232 8.00185 244.114 7.59156 243.892 7.23649C245.255 6.85669 245.479 4.60025 243.892 4.30982ZM116.492 210.227C112.156 203.004 107.865 195.75 103.618 188.467C112.805 188.936 122.035 189.093 131.244 189.16C126.371 196.22 121.41 203.235 116.358 210.205L116.492 210.227ZM133.859 185.317C123.332 185.317 112.737 185.518 102.233 186.099C98.6565 179.963 95.1027 173.811 91.5713 167.645C109.027 169.41 126.818 169.701 144.364 169.879C140.944 175.018 137.368 180.156 133.837 185.317H133.859ZM146.934 165.97C146.674 165.85 146.393 165.782 146.107 165.769C127.601 165.031 108.826 164.383 90.2302 165.456C85.7601 157.681 81.3718 149.884 77.0656 142.065C104.982 143.539 134.194 144.701 161.999 142.646C157.096 150.465 152.068 158.24 146.912 165.97H146.934ZM163.809 140.009C163.673 139.661 163.437 139.361 163.131 139.147C162.825 138.932 162.462 138.812 162.088 138.803C133.792 136.725 103.976 137.954 75.7022 139.473C71.53 131.937 67.4026 124.378 63.3199 116.797C100.623 118.897 139.313 121.824 176.571 119.612C172.369 126.433 168.108 133.225 163.787 139.987L163.809 140.009ZM178.315 116.797C178.164 116.476 177.928 116.202 177.633 116.005C177.337 115.808 176.993 115.695 176.638 115.68C139.134 112.887 100.802 114.094 63.1858 113.446C62.9285 113.429 62.6713 113.48 62.44 113.594C62.2086 113.708 62.011 113.88 61.867 114.094C61.0624 112.597 60.2354 111.1 59.4308 109.626C56.9722 105.023 54.603 100.376 52.2115 95.7294C97.4719 99.0136 144.52 100.488 189.758 97.1146C189.966 97.0909 190.169 97.0382 190.362 96.9582C186.383 103.571 182.368 110.177 178.315 116.775V116.797ZM191.725 94.7018C191.691 94.2277 191.473 93.7855 191.119 93.4687C190.764 93.1518 190.301 92.9852 189.825 93.0038C143.447 92.2666 97.0025 93.0038 50.6022 92.4229C47.19 85.7206 43.815 79.0183 40.4773 72.316C67.2983 73.7235 93.9628 74.215 120.717 74.5501C148.141 74.9075 176.169 76.3597 203.549 74.4384C199.6 81.2003 195.629 87.9473 191.636 94.6794L191.725 94.7018ZM205.471 70.9309C205.135 70.6362 204.71 70.4631 204.264 70.4393C176.549 68.8978 148.387 70.4394 120.65 70.1713C93.4264 69.9702 66.1807 69.3893 38.9574 69.3223C35.426 62.1732 31.9095 55.0166 28.4079 47.8526C90.9901 55.8954 155.36 54.7336 217.965 48.5898C213.853 56.0368 209.688 63.4838 205.471 70.9309ZM220.379 44.1216H220.245C155.562 50.0196 91.683 48.7685 26.9774 45.1046C23.6993 38.4172 20.3988 31.7149 17.076 24.9977C86.8776 32.4819 158.981 32.1915 228.872 26.3828C229.407 26.3414 229.904 26.0928 230.258 25.6902C227.017 31.767 223.642 37.8661 220.379 43.9875V44.1216ZM239.847 7.32587C236.874 13.1792 233.789 18.9656 230.75 24.7742C230.856 24.4818 230.887 24.1674 230.839 23.8599C230.792 23.5524 230.668 23.2617 230.479 23.0147C230.289 22.7677 230.041 22.5723 229.756 22.4464C229.472 22.3206 229.16 22.2683 228.85 22.2944C157.484 26.07 86.9893 25.2434 15.6232 22.1827C12.6431 16.3442 9.66298 10.5206 6.68287 4.71194C79.7253 7.08009 152.969 6.45455 226.034 7.23649C226.513 7.26649 226.989 7.14152 227.392 6.87998C227.794 6.61843 228.102 6.23424 228.269 5.78433C232.113 6.45457 236.047 7.01308 239.914 7.30351L239.847 7.32587Z" fill="#222221"/>
</svg>
