<svg width="57" height="58" viewBox="0 0 57 58" fill="none" xmlns="http://www.w3.org/2000/svg">
<path d="M45.9253 18.4227C40.795 18.4227 35.6198 18.4227 30.4446 18.4227C30.4096 13.3507 29.9374 8.29124 29.0332 3.30042C27.9803 -2.166 20.5872 -0.194483 20.0719 4.51022C19.6871 9.17483 19.6048 13.8594 19.8255 18.5347C14.3591 18.6915 8.91503 19.0052 3.53823 19.6773C2.57569 19.751 1.67648 20.1855 1.02047 20.8937C0.364454 21.6019 0 22.5316 0 23.497C0 24.4624 0.364454 25.3922 1.02047 26.1004C1.67648 26.8086 2.57569 27.243 3.53823 27.3168C8.87022 27.9889 14.247 28.3025 19.6686 28.4593C19.2717 33.4897 19.1371 38.5373 19.2654 43.5816C19.5118 48.2415 26.4792 49.6081 27.689 44.7242C28.9504 39.4163 29.7746 34.0139 30.1534 28.5714C35.4406 28.5714 40.7278 28.5714 45.9702 28.5714C52.3775 28.4818 52.3999 18.3779 45.9253 18.4227Z" fill="#80BDC4"/>
<path d="M54.9318 24.6526C54.9204 24.2284 54.7469 23.8246 54.4468 23.5245C54.1467 23.2244 53.7429 23.0509 53.3187 23.0396C48.0105 22.7162 42.684 23.2073 37.5244 24.4958C37.0514 19.1034 37.2925 13.6722 38.2413 8.34298C38.2992 8.12239 38.306 7.89154 38.2613 7.6679C38.2166 7.44427 38.1216 7.2337 37.9834 7.0523C37.8451 6.8709 37.6674 6.7234 37.4637 6.62096C37.2599 6.51851 37.0355 6.46385 36.8075 6.46111C31.9011 6.32669 26.9948 6.46111 22.0885 6.46111C21.6862 6.4669 21.3021 6.62926 21.0176 6.91372C20.7332 7.19817 20.5708 7.58228 20.565 7.98452C21.0131 13.3613 21.0579 18.7605 21.4164 24.1373C16.1573 23.03 10.7481 22.8254 5.42038 23.5324C4.96467 23.5382 4.52925 23.7219 4.20699 24.0441C3.88473 24.3664 3.70112 24.8018 3.69531 25.2575L4.2554 37.0192C4.2612 37.4749 4.44481 37.9104 4.76707 38.2327C5.08933 38.5549 5.52475 38.7385 5.98046 38.7443C11.0884 38.3187 16.1964 37.8257 21.2819 37.2209C20.8734 40.257 20.716 43.3217 20.8115 46.3838C20.8115 49.0498 20.2962 52.8584 21.5508 55.3451C23.9031 60.0274 32.506 57.3167 36.225 56.2189C36.6335 56.1038 36.9802 55.8323 37.1899 55.4632C37.3996 55.0942 37.4554 54.6573 37.3451 54.2474C35.3214 49.0702 34.7483 43.439 35.6873 37.9602C35.7204 37.7515 35.6938 37.5376 35.6106 37.3434C35.5273 37.1491 35.3908 36.9824 35.2168 36.8624C35.3143 36.9221 35.42 36.9674 35.5305 36.9969C41.8321 37.9926 48.1947 38.554 54.5733 38.6771C55.013 38.6771 55.4347 38.5024 55.7456 38.1915C56.0565 37.8806 56.2312 37.4589 56.2312 37.0192L54.9318 24.6526ZM34.948 36.5936C34.7543 36.51 34.5458 36.4664 34.3348 36.4654C34.1239 36.4643 33.9149 36.5058 33.7204 36.5873C33.5259 36.6689 33.3498 36.7889 33.2027 36.9401C33.0557 37.0913 32.9406 37.2706 32.8645 37.4673C31.4036 42.7244 31.6866 48.3134 33.671 53.3961C31.9609 53.7983 30.2238 54.0754 28.4734 54.225C24.4856 54.5162 24.3064 51.7159 24.2168 48.5346C24.1048 44.6364 24.2168 40.7158 23.6791 36.84H23.9703C25.449 36.6384 25.0681 34.2413 23.6119 34.2637C18.2799 34.2637 12.9703 34.7117 7.63831 35.0926L7.21264 26.7361C12.6619 26.5119 18.1198 26.8497 23.4999 27.7443C25.2697 27.9683 25.4266 25.2799 23.9031 24.7646H23.5223C24.0827 19.7197 24.1427 14.6318 23.7015 9.57514C27.4877 9.57514 31.2962 9.57514 35.0824 9.57514C34.2752 14.5808 34.0647 19.6646 34.4551 24.7198C34.48 25.0638 34.6192 25.3896 34.8506 25.6453C35.082 25.9011 35.3923 26.0722 35.7321 26.1312C35.7321 26.9602 36.0905 27.8339 37.0987 27.6994C41.9835 26.9248 46.9172 26.4981 51.8625 26.4225L52.7362 35.3838C47.113 35.1374 41.5346 34.6893 35.9337 34.2188C34.5223 33.838 34.0518 35.8094 34.9256 36.5936H34.948Z" fill="#222221"/>
</svg>
