<svg width="92" height="81" viewBox="0 0 92 81" fill="none" xmlns="http://www.w3.org/2000/svg">
<path d="M91.2349 71.3982C79.3485 48.2487 66.7364 25.4754 53.3984 3.07822C50.8382 -1.22238 45.0652 -0.824963 42.4198 3.07822C34.7839 14.3525 27.3963 25.7877 20.2569 37.3837C16.7108 43.1888 13.1648 49.0223 9.76764 54.9196C6.93079 59.8447 4.03011 64.7486 1.81027 69.9717C-1.61523 73.4349 -0.182616 81 6.13647 81L85.7385 80.9574C90.7668 80.9716 93.4051 75.6278 91.2349 71.3982ZM20.7746 61.3634C24.2356 55.4945 27.6965 49.6326 31.2639 43.8275C36.5641 35.1932 42.0014 26.6582 47.5758 18.2226C57.1974 34.6869 66.4361 51.3665 75.2918 68.2614H16.7037C18.0654 65.9905 19.3917 63.6415 20.7746 61.3634Z" fill="#F7E600"/>
</svg>
